<?xml version="1.0" encoding="utf-8"?>
<!-- Generator: Adobe Illustrator 18.0.0, SVG Export Plug-In . SVG Version: 6.00 Build 0)  -->
<!DOCTYPE svg PUBLIC "-//W3C//DTD SVG 1.1//EN" "http://www.w3.org/Graphics/SVG/1.1/DTD/svg11.dtd">
<svg version="1.1" id="Layer_1" xmlns="http://www.w3.org/2000/svg" xmlns:xlink="http://www.w3.org/1999/xlink" x="0px" y="0px"
	 viewBox="0 0 54.7 75.6" enable-background="new 0 0 54.7 75.6" xml:space="preserve">
<g>
	<g>
		<path fill="none" d="M6.7,47.5c0.1,0.1,0.1,0.2,0.1,0.3c0-0.1,0.1-0.3,0.1-0.4c-0.2-0.1-0.4-0.2-0.6-0.4
			C6.5,47.2,6.6,47.3,6.7,47.5z"/>
		<path fill="none" d="M16.6,34.6C16.6,34.6,16.6,34.6,16.6,34.6C16.6,34.6,16.6,34.6,16.6,34.6C16.6,34.6,16.6,34.6,16.6,34.6z"/>
		<path fill="none" d="M36.7,34.7c0.1,0,0.2,0,0.3,0c-0.1,0-0.2-0.1-0.2-0.1c0,0,0,0,0,0C36.7,34.7,36.7,34.7,36.7,34.7z"/>
		<path fill="none" d="M40.2,35.6C40.2,35.6,40.2,35.6,40.2,35.6C40.2,35.5,40.2,35.5,40.2,35.6C40.2,35.5,40.2,35.5,40.2,35.6
			C40.2,35.6,40.2,35.6,40.2,35.6z"/>
		<path fill="none" d="M38.1,35.5C38.1,35.5,38.1,35.5,38.1,35.5c0.1,0,0.2,0,0.3,0c0,0,0.1,0,0.1,0c-0.1-0.1-0.2-0.1-0.3-0.2
			c0,0,0,0,0,0.1C38.2,35.5,38.1,35.5,38.1,35.5z"/>
		<path fill="none" d="M38.7,34.6C38.7,34.6,38.7,34.6,38.7,34.6C38.7,34.6,38.7,34.6,38.7,34.6C38.7,34.6,38.7,34.6,38.7,34.6z"/>
		<path fill="none" d="M18.6,34.7c0,0-0.1-0.1-0.1-0.1c0,0,0,0,0,0c-0.1,0-0.2,0.1-0.2,0.1C18.4,34.7,18.5,34.7,18.6,34.7z"/>
		<path fill="none" d="M13.6,36.8C13.6,36.7,13.7,36.7,13.6,36.8c0-0.1,0-0.1,0-0.2C13.6,36.6,13.6,36.7,13.6,36.8
			C13.6,36.7,13.6,36.7,13.6,36.8z"/>
		<path fill="none" d="M42.7,39c-0.1-0.1-0.2-0.3-0.4-0.4c0,0,0,0.1-0.1,0.1c-0.1,0.1-0.1,0.1-0.2,0.2c0,0,0.1,0,0.1,0
			C42.4,38.9,42.6,38.9,42.7,39z"/>
		<path fill="none" d="M16.9,35.5c0.1,0,0.2,0,0.3,0c0,0,0,0,0,0c0,0-0.1-0.1-0.1-0.1c0,0,0,0,0-0.1c-0.1,0.1-0.2,0.1-0.3,0.2
			C16.9,35.5,16.9,35.5,16.9,35.5z"/>
		<path fill="none" d="M40.9,37.6c0.1,0,0.3,0,0.4,0.1c-0.1-0.1-0.2-0.2-0.3-0.3c0,0,0,0.1,0,0.1c-0.1,0.1-0.1,0.1-0.2,0.2
			C40.8,37.6,40.9,37.6,40.9,37.6C40.9,37.6,40.9,37.6,40.9,37.6z"/>
		<path fill="none" d="M39.7,36.5c0.1,0,0.2,0,0.3,0c-0.1-0.1-0.2-0.2-0.3-0.2c0,0,0,0,0,0.1c0,0.1-0.1,0.1-0.1,0.1c0,0,0,0,0,0
			C39.6,36.5,39.6,36.5,39.7,36.5z"/>
		<path fill="none" d="M15.1,35.5C15.1,35.5,15.1,35.5,15.1,35.5C15.1,35.5,15.1,35.5,15.1,35.5C15.1,35.6,15.1,35.6,15.1,35.5
			C15.1,35.6,15.1,35.6,15.1,35.5z"/>
		<path fill="none" d="M8.3,42.9c0,0.1,0.1,0.2,0.1,0.3c0,0.1,0,0.1,0,0.2c0-0.1,0.1-0.2,0.1-0.3C8.5,43,8.4,42.9,8.3,42.9z"/>
		<path fill="none" d="M47.6,45.2c0,0.1,0.1,0.2,0.1,0.3c0-0.1,0-0.2,0.1-0.3c0.1-0.1,0.1-0.3,0.2-0.4C47.9,45,47.7,45.1,47.6,45.2z
			"/>
		<path fill="none" d="M9.6,41.4c0-0.1,0.1-0.1,0.1-0.2c-0.1-0.1-0.2-0.1-0.2-0.2c0,0.1,0.1,0.2,0.1,0.3C9.6,41.3,9.6,41.4,9.6,41.4
			z"/>
		<path fill="none" d="M47,42.9c-0.1,0.1-0.2,0.2-0.3,0.2c0,0.1,0.1,0.2,0.1,0.3c0-0.1,0-0.1,0-0.2C46.9,43.1,46.9,43,47,42.9z"/>
		<path fill="none" d="M7.3,44.9c0.1,0.1,0.2,0.2,0.2,0.4c0,0.1,0.1,0.2,0.1,0.3c0-0.1,0.1-0.2,0.1-0.3C7.6,45.1,7.4,45,7.3,44.9z"
			/>
		<path fill="none" d="M41.7,36.7C41.7,36.7,41.7,36.7,41.7,36.7c0-0.1,0-0.1,0-0.2C41.7,36.6,41.6,36.7,41.7,36.7
			C41.6,36.7,41.7,36.7,41.7,36.7z"/>
		<path fill="none" d="M48.4,47.8c0-0.1,0.1-0.2,0.1-0.3c0.1-0.2,0.2-0.3,0.4-0.5c-0.2,0.2-0.4,0.3-0.6,0.4
			C48.4,47.5,48.4,47.7,48.4,47.8z"/>
		<path fill="none" d="M15.7,36.4C15.7,36.3,15.7,36.3,15.7,36.4c-0.1,0-0.2,0.1-0.4,0.2c0.2,0,0.3,0,0.5,0c0,0,0,0,0,0
			C15.8,36.5,15.7,36.4,15.7,36.4z"/>
		<path fill="none" d="M45.6,41.2c0,0.1,0.1,0.1,0.1,0.2c0-0.1,0-0.1,0-0.2c0-0.1,0-0.2,0.1-0.3C45.7,41.1,45.7,41.1,45.6,41.2z"/>
		<path fill="none" d="M43,38C43.1,38,43.1,38.1,43,38C43.1,38.1,43.1,38.1,43,38c0.1,0,0.1-0.1,0.1-0.1C43.1,37.9,43.1,38,43,38z"
			/>
		<path fill="none" d="M12.2,38.1C12.2,38.1,12.2,38,12.2,38.1c0.1-0.1,0-0.2,0-0.2C12.2,37.9,12.2,38,12.2,38.1
			C12.2,38.1,12.2,38.1,12.2,38.1z"/>
		<path fill="none" d="M44.4,39.5c0,0,0.1,0.1,0.1,0.1c0,0,0-0.1,0-0.1c0-0.1,0-0.1,0-0.2C44.5,39.4,44.4,39.5,44.4,39.5z"/>
		<path fill="none" d="M10.8,39.7c0,0,0.1-0.1,0.1-0.1c-0.1-0.1-0.1-0.1-0.1-0.2c0,0.1,0,0.1,0,0.2C10.8,39.6,10.8,39.6,10.8,39.7z"
			/>
		<path fill="none" d="M48.1,53.4c0-0.2,0-0.3,0-0.5c0-0.2,0-0.4,0-0.5c0,0-0.1,0.1-0.2,0.1c0,0,0,0,0,0c-0.2,0-0.5-0.1-0.7-0.1
			c0.2,0.1,0.3,0.2,0.4,0.3C47.9,52.8,48,53.1,48.1,53.4z"/>
		<path fill="none" d="M8.9,45.8c0.1,0,0.2-0.1,0.3-0.1c-0.2,0-0.3,0-0.5-0.1c0,0-0.1,0-0.1-0.1c-0.1,0.2-0.2,0.5-0.3,0.7
			C8.5,46,8.7,45.8,8.9,45.8z"/>
		<path fill="none" d="M47.9,54.9C47.9,54.9,47.9,54.9,47.9,54.9c-0.3,0-0.6-0.2-0.9-0.3c0.2,0.1,0.4,0.3,0.5,0.5
			c0.2,0.2,0.3,0.6,0.4,0.9c0.1-0.4,0.1-0.7,0.1-1.1C48,54.9,47.9,54.9,47.9,54.9z"/>
		<path fill="none" d="M9.7,43.8c0.1,0,0.1,0,0.2-0.1c-0.1,0-0.3-0.1-0.4-0.1c0,0-0.1,0-0.1-0.1c-0.1,0.2-0.2,0.4-0.3,0.7
			C9.3,44,9.5,43.9,9.7,43.8z"/>
		<path fill="none" d="M48,50.8c0-0.3-0.1-0.6-0.1-0.9c0,0-0.1,0.1-0.1,0.1c-0.1,0-0.1,0-0.2,0l0,0c-0.2,0-0.3,0-0.5,0
			c0.1,0.1,0.3,0.1,0.4,0.2C47.7,50.3,47.9,50.6,48,50.8z"/>
		<path fill="none" d="M8,47.7c-0.1,0-0.1,0-0.1-0.1c-0.1,0.3-0.1,0.6-0.2,0.9C7.8,48.2,8,48,8.2,47.9c0.1-0.1,0.2-0.1,0.3-0.1
			c0,0-0.1,0-0.1,0C8.3,47.7,8.1,47.7,8,47.7z"/>
		<path fill="none" d="M44,40.6c-0.1-0.2-0.2-0.3-0.4-0.5c0,0,0,0.1-0.1,0.1c-0.1,0.1-0.2,0.1-0.3,0.2c0,0,0.1,0,0.1,0
			C43.6,40.4,43.8,40.4,44,40.6z"/>
		<path fill="none" d="M7.5,50c-0.1,0-0.1,0-0.1-0.1c0,0.3-0.1,0.6-0.1,0.9c0.1-0.3,0.3-0.5,0.5-0.7c0.1-0.1,0.2-0.2,0.4-0.2
			c-0.2,0-0.3,0-0.5,0C7.6,50,7.6,50,7.5,50z"/>
		<path fill="none" d="M7.3,52.4c-0.1,0-0.1,0-0.2-0.1c0,0.2,0,0.4,0,0.5c0,0.2,0,0.3,0,0.5c0.1-0.3,0.3-0.6,0.5-0.8
			c0.1-0.1,0.3-0.2,0.4-0.3C7.8,52.3,7.6,52.4,7.3,52.4C7.4,52.4,7.4,52.4,7.3,52.4z"/>
		<path fill="none" d="M7.4,54.9c0,0-0.1,0-0.1,0c0,0.4,0.1,0.7,0.1,1.1c0.1-0.3,0.2-0.7,0.4-0.9c0.1-0.2,0.3-0.3,0.5-0.5
			C8,54.7,7.7,54.9,7.4,54.9C7.4,54.9,7.4,54.9,7.4,54.9z"/>
		<path fill="none" d="M45.6,43.8c0.2,0.1,0.4,0.2,0.6,0.4c-0.1-0.2-0.2-0.4-0.3-0.7c0,0-0.1,0.1-0.1,0.1c-0.1,0.1-0.3,0.1-0.4,0.1
			C45.4,43.7,45.5,43.8,45.6,43.8z"/>
		<path fill="none" d="M46.4,45.8c0.2,0.1,0.4,0.3,0.6,0.5c-0.1-0.2-0.2-0.5-0.3-0.7c0,0-0.1,0.1-0.1,0.1c-0.1,0-0.3,0.1-0.5,0.1
			C46.2,45.7,46.3,45.7,46.4,45.8z"/>
		<path fill="none" d="M12.9,38.7c-0.1,0.1-0.2,0.2-0.4,0.4c0.2-0.1,0.4-0.1,0.5-0.1c0,0,0,0,0,0c0,0,0,0,0,0
			C13.1,38.9,13.1,38.8,12.9,38.7C13,38.7,12.9,38.7,12.9,38.7z"/>
		<path fill="none" d="M45.2,42.3c-0.1-0.2-0.2-0.4-0.4-0.6c0,0,0,0.1-0.1,0.1c-0.1,0.1-0.2,0.1-0.3,0.1c0.1,0,0.1,0,0.2,0
			C44.8,42,45,42.1,45.2,42.3z"/>
		<path fill="none" d="M14.3,37.4c-0.1,0.1-0.2,0.2-0.3,0.3c0.2-0.1,0.4-0.1,0.5-0.1c0,0,0,0,0.1,0C14.4,37.6,14.4,37.5,14.3,37.4
			C14.3,37.4,14.3,37.4,14.3,37.4z"/>
		<path fill="none" d="M11.7,40.1c-0.1,0.2-0.2,0.3-0.4,0.5c0.2-0.1,0.4-0.2,0.6-0.2c0,0,0.1,0,0.1,0C11.9,40.3,11.8,40.2,11.7,40.1
			C11.7,40.2,11.7,40.1,11.7,40.1z"/>
		<path fill="none" d="M10.5,41.7c-0.1,0.2-0.2,0.4-0.4,0.6c0.2-0.1,0.4-0.3,0.6-0.3c0.1,0,0.1,0,0.2,0
			C10.8,41.9,10.7,41.9,10.5,41.7C10.5,41.8,10.5,41.7,10.5,41.7z"/>
		<path fill="none" d="M47.6,48.5c-0.1-0.3-0.1-0.6-0.2-0.9c0,0-0.1,0.1-0.1,0.1c-0.1,0-0.3,0-0.5,0l0,0c0,0-0.1,0-0.1,0
			c0.1,0,0.2,0.1,0.3,0.1C47.3,48,47.5,48.2,47.6,48.5z"/>
		<path d="M23.8,73.1c-0.8-0.2-1.6-0.4-2.4-0.7c0.1,0,0.3,0,0.4,0c0,0,0,0,0.1,0c0.1,0,0.2-0.1,0.2-0.2c0.2-0.9,0-2.1-0.3-2.8
			c-0.3-0.7-1.1-1.3-1.8-1.3l0,0c-0.1,0-0.1,0-0.2,0.1c-0.3,0.5-0.7,1.7-0.4,2.5c0.2,0.6,0.7,1.1,1.4,1.4c-0.7-0.3-1.5-0.6-2.1-1
			c0,0,0,0,0,0c0,0,0,0,0,0c0.1,0,0.2-0.1,0.2-0.1c0.3-0.8,0.4-2,0.2-2.7c-0.2-0.8-0.9-1.5-1.5-1.6c-0.1,0-0.2,0-0.2,0.1
			c-0.4,0.5-0.9,1.5-0.7,2.4c0.1,0.4,0.3,0.9,0.7,1.2c-0.5-0.3-0.9-0.6-1.4-0.9c0.1,0,0.1,0,0.1-0.1c0.4-0.7,0.7-1.9,0.6-2.6
			c0-0.8-0.7-1.5-1.2-1.7c-0.1,0-0.2,0-0.2,0c-0.5,0.4-1.1,1.2-1.1,2.1c0,0.3,0.2,0.7,0.4,1.1c-0.3-0.3-0.7-0.6-1-0.9
			c0,0,0.1,0,0.1-0.1c0.5-0.6,0.9-1.7,1-2.4c0.1-0.7-0.4-1.6-0.9-1.8c-0.1,0-0.2,0-0.2,0c-0.5,0.3-1.2,1-1.3,1.9c0,0.3,0,0.7,0.1,1
			c-0.3-0.3-0.5-0.6-0.8-0.9c0,0,0.1,0,0.1,0c0.6-0.5,1.1-1.5,1.3-2.1c0.1-0.6-0.1-1.6-0.7-1.9c-0.1,0-0.1,0-0.2,0
			c-0.6,0.3-1.3,0.8-1.5,1.6c-0.1,0.3-0.1,0.7,0,1c-0.2-0.3-0.4-0.7-0.6-1c0,0,0.1,0,0.1,0c0.6-0.4,1.3-1.3,1.5-1.9c0,0,0,0,0,0
			c0.2-0.6,0.1-1.5-0.4-1.9c-0.1,0-0.1-0.1-0.2,0c-0.6,0.2-1.4,0.6-1.7,1.3C9,60.4,9,60.8,9,61.1c-0.2-0.3-0.3-0.7-0.4-1
			c0,0,0,0,0,0c0,0,0.1,0,0.1,0c0.7-0.3,1.3-1,1.7-1.6c0.3-0.5,0.3-1.4-0.1-1.9c0-0.1-0.1-0.1-0.2-0.1c-0.6,0.1-1.4,0.4-1.8,1.1
			c0,0,0,0,0,0c-0.1,0.3-0.2,0.6-0.3,1c-0.1-0.4-0.2-0.7-0.3-1.1c0,0,0.1,0,0.1,0c0,0,0,0,0.1,0c0.7-0.2,1.4-0.8,1.8-1.3
			c0.4-0.5,0.5-1.4,0.1-1.8c0-0.1-0.1-0.1-0.2-0.1h0c-0.3,0-0.7,0.1-1.1,0.3c0.3-0.2,0.6-0.4,0.8-0.6c0.4-0.4,0.6-1.2,0.4-1.7
			c0-0.1-0.1-0.1-0.2-0.1c-0.1,0-0.2,0-0.3,0c-0.2,0-0.5,0-0.7,0.1c0.3-0.1,0.5-0.3,0.7-0.4c0.4-0.4,0.7-1.1,0.5-1.7
			c0-0.1-0.1-0.1-0.2-0.1c-0.2,0-0.4-0.1-0.6-0.1c-0.1,0-0.2,0-0.3,0c0.3-0.1,0.5-0.2,0.7-0.3c0.5-0.3,0.8-1,0.7-1.5
			c0-0.1-0.1-0.2-0.1-0.2c-0.2-0.1-0.5-0.1-0.7-0.1c0.2-0.1,0.4-0.1,0.6-0.2c0.4-0.3,0.9-0.9,0.8-1.4c0-0.1-0.1-0.1-0.1-0.2
			c-0.2-0.1-0.4-0.2-0.7-0.2c0.2,0,0.4-0.1,0.5-0.1c0.5-0.2,1-0.8,1-1.3c0-0.1,0-0.1-0.1-0.2c-0.1-0.1-0.3-0.2-0.5-0.3
			c0.2,0,0.4,0,0.5-0.1c0.5-0.1,1-0.7,1-1.1c0-0.1,0-0.2-0.1-0.2c-0.1-0.1-0.3-0.2-0.5-0.3c0,0,0.1,0,0.1,0c0.1,0,0.2,0,0.3,0
			c0.5-0.1,1-0.5,1.1-1c0-0.1,0-0.2-0.1-0.2c-0.1-0.1-0.2-0.2-0.4-0.3c0.1,0,0.2,0,0.3,0c0,0,0.1,0,0.1,0c0.5,0,1-0.4,1.2-0.9
			c0-0.1,0-0.2,0-0.2c-0.1-0.1-0.2-0.2-0.3-0.3c0.1,0,0.2,0,0.3,0c0,0,0,0,0.1,0c0.5,0,1-0.3,1.2-0.7c0-0.1,0-0.2,0-0.2
			c-0.1-0.1-0.2-0.2-0.3-0.3c0.1,0,0.2,0,0.3,0.1c0,0,0.1,0,0.1,0c0.4,0,0.9-0.3,1.1-0.6c0-0.1,0-0.2,0-0.2c0-0.1-0.1-0.2-0.2-0.3
			c0.1,0,0.2,0.1,0.2,0.1c0.1,0,0.1,0,0.2,0c0.4,0,0.8-0.2,1-0.5c0-0.1,0-0.1,0-0.2c0-0.1-0.1-0.2-0.1-0.2c0.1,0,0.1,0.1,0.2,0.1
			c0.1,0,0.2,0,0.3,0c0.4,0,0.8-0.2,0.9-0.4c0-0.1,0.1-0.1,0-0.2c0-0.1-0.1-0.1-0.1-0.2c0.1,0,0.1,0.1,0.2,0.1
			c0.1,0,0.2,0.1,0.4,0.1c0.3,0,0.7-0.1,0.8-0.3c0.1-0.1,0.1-0.1,0-0.2c-0.1-0.3-0.4-0.8-0.8-1C20,34,19.9,34,19.8,34
			c0.1,0,0.1-0.1,0.2-0.1c0.2,0.1,0.4,0.1,0.6,0.1c0.3,0,0.5,0,0.7-0.1c0.4-0.2,0.8-0.5,0.8-1c0-0.1,0-0.1,0-0.2
			c-0.2-0.2-0.5-0.3-0.8-0.3c-0.1,0-0.3,0-0.4,0c-0.3,0.1-0.6,0.3-0.9,0.6c0,0,0,0,0,0c-0.1,0-0.1,0-0.2,0c0.2-0.4,0.1-0.9-0.1-1.2
			c0-0.1-0.1-0.1-0.2-0.1c-0.4,0-1,0.4-1.2,0.8c0,0.1-0.1,0.2-0.1,0.3c0-0.1-0.1-0.2-0.1-0.3c0-0.1-0.1-0.1-0.2-0.1
			c-0.4,0-1,0.5-1.1,0.9c0,0.1-0.1,0.2-0.1,0.3c-0.1-0.1-0.1-0.2-0.2-0.3c-0.1-0.1-0.1-0.1-0.2-0.1c-0.5,0.1-1,0.6-1.1,1
			c0,0.1-0.1,0.3-0.1,0.4c-0.1-0.1-0.1-0.3-0.2-0.4c-0.1-0.1-0.1-0.1-0.2-0.1c-0.5,0.1-1,0.7-1.1,1.1c0,0.1,0,0.3,0,0.5
			c-0.1-0.2-0.2-0.3-0.3-0.4c-0.1-0.1-0.2-0.1-0.2,0c-0.5,0.2-0.9,0.8-1,1.3c0,0.2,0,0.3,0,0.5c-0.1-0.2-0.2-0.3-0.4-0.4
			c-0.1-0.1-0.2-0.1-0.2,0c-0.4,0.2-0.9,0.8-0.9,1.4c0,0.2,0,0.4,0.1,0.6c-0.1-0.2-0.3-0.3-0.4-0.4c-0.1,0-0.2,0-0.2,0
			c-0.5,0.2-0.9,1-0.8,1.5c0,0.2,0.1,0.4,0.2,0.7C9,40.2,8.8,40,8.6,39.9c-0.1,0-0.2,0-0.2,0c-0.5,0.3-0.8,1.1-0.7,1.7
			c0,0.2,0.1,0.5,0.3,0.7c-0.2-0.2-0.4-0.4-0.7-0.4c-0.1,0-0.2,0-0.2,0c-0.4,0.4-0.7,1.2-0.5,1.8C6.6,44,6.8,44.2,7,44.5
			c-0.2-0.2-0.5-0.4-0.8-0.4c-0.1,0-0.2,0-0.2,0.1c-0.4,0.4-0.6,1.3-0.3,1.9c0.1,0.3,0.3,0.6,0.6,0.9c-0.3-0.3-0.7-0.4-1-0.5
			c-0.1,0-0.2,0-0.2,0.1c-0.4,0.5-0.4,1.5-0.1,2c0.2,0.5,0.9,1.1,1.6,1.3c0,0.2,0,0.3-0.1,0.5c-0.1-0.1-0.1-0.2-0.2-0.3
			c-0.4-0.6-1.1-0.9-1.7-0.9c-0.1,0-0.2,0-0.2,0.1c-0.3,0.5-0.3,1.5,0.1,2.1c0.4,0.5,1.1,1,1.8,1.1c0,0.2,0,0.4,0,0.5c0,0,0,0,0,0
			c-0.1-0.1-0.2-0.3-0.3-0.4c-0.4-0.5-1.1-0.7-1.7-0.7c-0.1,0-0.1,0-0.2,0c-0.1,0-0.1,0.1-0.2,0.1c-0.3,0.6-0.1,1.6,0.4,2.1
			c0.4,0.4,1.2,0.9,2,0.9l0,0c0,0,0,0,0,0c0,0.2,0,0.4,0.1,0.7c-0.1-0.2-0.2-0.3-0.3-0.4c-0.4-0.4-1-0.6-1.6-0.6c-0.1,0-0.3,0-0.4,0
			c-0.1,0-0.2,0.1-0.2,0.2c-0.2,0.7,0.1,1.7,0.7,2.2c0.5,0.4,1.3,0.7,1.9,0.7l0,0c0.1,0,0.2,0,0.3,0C6.9,58,7,58.2,7.1,58.5
			c-0.2-0.2-0.3-0.3-0.5-0.4c-0.4-0.3-0.8-0.4-1.4-0.4c-0.3,0-0.5,0-0.7,0.1c-0.1,0-0.1,0.1-0.1,0.2c-0.1,0.7,0.3,1.7,1,2.1
			c0.4,0.3,1.1,0.5,1.7,0.5l0,0c0.3,0,0.5,0,0.7-0.1c0,0,0,0,0,0C7.8,60.7,8,61,8.1,61.3c-0.2-0.2-0.4-0.4-0.6-0.5c0,0,0,0,0,0
			c-0.3-0.2-0.7-0.2-1.1-0.2c-0.4,0-0.8,0.1-1.1,0.2c-0.1,0-0.1,0.1-0.1,0.2c0,0.7,0.6,1.7,1.3,2.1c0.4,0.2,0.9,0.3,1.4,0.3l0,0
			c0.4,0,0.8-0.1,1.1-0.2c0,0,0.1,0,0.1-0.1c0.2,0.3,0.4,0.7,0.6,1c-0.3-0.2-0.6-0.4-0.8-0.5c-0.2-0.1-0.5-0.1-0.8-0.1
			c-0.5,0-1.1,0.2-1.5,0.4c-0.1,0.1-0.1,0.1-0.1,0.2c0.1,0.7,0.9,1.7,1.6,1.9c0.3,0.1,0.6,0.1,0.9,0.1l0,0c0.7,0,1.3-0.2,1.7-0.4
			c0,0,0.1-0.1,0.1-0.1c0.3,0.3,0.5,0.7,0.8,1c-0.3-0.2-0.7-0.3-1-0.4c0,0,0,0,0,0c-0.1,0-0.3,0-0.4,0c-0.7,0-1.4,0.3-1.9,0.7
			c-0.1,0.1-0.1,0.1-0.1,0.2c0.2,0.8,1.2,1.6,2,1.7c0.1,0,0.2,0,0.4,0c0.7,0,1.6-0.2,2.2-0.8c0,0,0.1-0.1,0.1-0.1
			c0.3,0.3,0.7,0.6,1,0.9c-0.4-0.1-0.8-0.2-1.1-0.3h0c-1,0-1.8,0.5-2.2,1c0,0.1-0.1,0.2,0,0.2c0.3,0.8,1.5,1.5,2.3,1.5c0,0,0,0,0,0
			h0c0.8,0,2-0.5,2.5-1.2c0,0,0-0.1,0-0.1c0.4,0.3,0.7,0.5,1.1,0.8c-0.3-0.1-0.5-0.1-0.8-0.1c-0.1,0-0.2,0-0.3,0
			c-1,0.1-1.8,0.8-2.1,1.4c0,0.1,0,0.2,0,0.2c0.4,0.7,1.5,1.2,2.3,1.2l0,0c0.1,0,0.2,0,0.3,0c0.8-0.1,2-0.8,2.4-1.6c0,0,0,0,0-0.1
			c0.4,0.2,0.8,0.4,1.2,0.6c-0.4,0-0.7,0-1,0.1c0,0,0,0,0,0c-1,0.3-1.7,1.2-1.9,1.8c0,0.1,0,0.2,0,0.2c0.4,0.5,1.3,0.8,2.2,0.8l0,0
			c0.3,0,0.5,0,0.7-0.1c0.8-0.3,1.8-1.1,2.2-2.1c0.6,0.2,1.3,0.4,1.9,0.5c0,0,0.1,0,0.1,0c0.2,0,0.4-0.1,0.4-0.4
			C24.2,73.4,24,73.2,23.8,73.1z M19.6,70.7c-0.3-0.8,0-1.8,0.3-2.3c0.6,0,1.3,0.5,1.6,1.2c0.3,0.6,0.5,1.8,0.3,2.7
			C21,72.3,19.9,71.5,19.6,70.7z M17.4,67c0.6,0.1,1.2,0.7,1.4,1.4C19,69,19,70.2,18.6,71c-0.8-0.1-1.7-1-1.9-1.8
			C16.6,68.4,17,67.4,17.4,67z M15.3,65.3c0.5,0.2,1.1,0.9,1.1,1.5c0.1,0.6-0.1,1.8-0.6,2.4c-0.8-0.2-1.5-1.2-1.5-2
			C14.3,66.5,14.8,65.7,15.3,65.3z M10.6,62.7c0.2-0.7,0.8-1.2,1.4-1.5c0.5,0.3,0.7,1.1,0.6,1.7c-0.1,0.6-0.6,1.5-1.2,2
			C10.8,64.5,10.4,63.4,10.6,62.7z M9.4,60.2c0.3-0.6,1-1.1,1.5-1.2c0.4,0.3,0.5,1.1,0.3,1.7c-0.2,0.5-0.8,1.4-1.4,1.8
			C9.3,62,9,60.9,9.4,60.2z M8.5,57.7c0.4-0.6,1.1-0.9,1.6-1c0.3,0.4,0.4,1.1,0.1,1.6c-0.3,0.5-0.9,1.2-1.6,1.5
			C8.2,59.4,8.2,58.3,8.5,57.7z M8.1,65.9c-0.7-0.2-1.4-1.1-1.5-1.7c0.5-0.3,1.3-0.5,2-0.3c0.7,0.3,1.6,1,1.8,1.7
			C9.8,66,8.8,66.1,8.1,65.9z M12.8,71.3c-0.7,0-1.8-0.7-2.1-1.3c0.4-0.5,1.2-0.9,2-0.9c0.8,0,2,0.6,2.4,1.2
			C14.6,70.8,13.5,71.3,12.8,71.3z M12.2,65.1c0.1-0.7,0.7-1.4,1.2-1.7c0.5,0.2,0.9,1,0.8,1.6c0,0.6-0.4,1.7-0.9,2.2
			C12.7,66.9,12.2,65.8,12.2,65.1z M9.6,54.5c0.3,0.4,0.2,1.1-0.1,1.6c-0.3,0.4-1,1-1.7,1.2c-0.4-0.5-0.2-1.6,0.2-2.1
			C8.4,54.7,9.1,54.5,9.6,54.5z M7.8,55c-0.2,0.2-0.3,0.6-0.4,0.9c-0.1-0.4-0.1-0.7-0.1-1.1c0,0,0.1,0,0.1,0c0,0,0,0,0,0
			c0.3,0,0.6-0.2,0.9-0.3C8.1,54.7,8,54.9,7.8,55z M9.5,52.2c0.2,0.4,0,1.1-0.3,1.5c-0.4,0.4-1.1,0.9-1.8,0.9c-0.2-0.6,0-1.5,0.4-2
			C8.3,52.3,9,52.2,9.5,52.2z M7.7,52.6c-0.2,0.2-0.4,0.5-0.5,0.8c0-0.2,0-0.3,0-0.5c0-0.2,0-0.4,0-0.5c0,0,0.1,0.1,0.2,0.1
			c0,0,0,0,0,0c0.2,0,0.5-0.1,0.7-0.1C7.9,52.3,7.8,52.4,7.7,52.6z M9.6,50.1c0.2,0.4-0.1,1.1-0.5,1.4c-0.4,0.3-1.2,0.7-1.8,0.7
			c-0.2-0.6,0.1-1.5,0.6-1.8C8.4,50,9.1,49.9,9.6,50.1z M7.8,50.2c-0.2,0.2-0.4,0.4-0.5,0.7c0-0.3,0.1-0.6,0.1-0.9
			c0,0,0.1,0.1,0.1,0.1c0.1,0,0.1,0,0.2,0c0.2,0,0.3,0,0.5,0C8.1,50,7.9,50.1,7.8,50.2z M9.3,49.3c-0.4,0.3-1.2,0.5-1.8,0.5
			c-0.1-0.6,0.3-1.4,0.8-1.7c0.5-0.3,1.2-0.2,1.6-0.1C10,48.4,9.8,49,9.3,49.3z M8.2,47.9C8,48,7.8,48.2,7.7,48.5
			c0.1-0.3,0.1-0.6,0.2-0.9c0,0,0.1,0.1,0.1,0.1c0.1,0,0.3,0,0.5,0c0,0,0.1,0,0.1,0C8.4,47.8,8.3,47.8,8.2,47.9z M9.4,43.5
			C9.5,43.5,9.5,43.6,9.4,43.5c0.2,0.1,0.4,0.2,0.5,0.2c-0.1,0-0.2,0-0.2,0.1c-0.2,0.1-0.4,0.2-0.6,0.4C9.2,43.9,9.3,43.7,9.4,43.5z
			 M8.6,45.5c0,0,0.1,0.1,0.1,0.1c0.1,0,0.3,0.1,0.5,0.1c-0.1,0-0.2,0.1-0.3,0.1c-0.2,0.1-0.4,0.3-0.6,0.5C8.4,46,8.5,45.7,8.6,45.5
			z M9.8,47.2c-0.4,0.2-1.2,0.4-1.8,0.3C8,46.9,8.5,46.2,9,46c0.5-0.2,1.2-0.1,1.5,0.1C10.6,46.4,10.2,47,9.8,47.2z M10.4,45.3
			c-0.4,0.2-1.2,0.2-1.7,0.1c0-0.5,0.6-1.2,1.1-1.3c0.5-0.2,1.1,0,1.4,0.2C11.2,44.6,10.9,45.1,10.4,45.3z M11.3,43.5
			c-0.4,0.1-1.2,0.1-1.6-0.1c0.1-0.5,0.7-1.1,1.1-1.2c0.5-0.1,1.1,0.1,1.4,0.4C12.1,42.9,11.7,43.4,11.3,43.5z M10.7,42
			c-0.2,0.1-0.4,0.2-0.6,0.3c0.1-0.2,0.2-0.4,0.4-0.6c0,0,0,0.1,0.1,0.1c0.1,0.1,0.2,0.1,0.3,0.1C10.8,42,10.8,42,10.7,42z
			 M12.2,41.9c-0.4,0.1-1.1,0-1.6-0.3c0.1-0.5,0.7-1,1.2-1c0.5-0.1,1,0.2,1.3,0.5C13.1,41.4,12.6,41.8,12.2,41.9z M11.9,40.3
			c-0.2,0-0.4,0.1-0.6,0.2c0.1-0.2,0.2-0.3,0.4-0.5c0,0,0,0.1,0.1,0.1c0.1,0.1,0.2,0.1,0.3,0.2C12,40.3,11.9,40.3,11.9,40.3z
			 M14.3,39.7c-0.1,0.3-0.6,0.6-1,0.7c-0.4,0-1.1-0.1-1.5-0.4c0.2-0.4,0.8-0.9,1.3-0.9C13.6,39.1,14.1,39.4,14.3,39.7z M13.2,38.9
			C13.1,38.9,13.1,38.9,13.2,38.9c-0.2,0-0.4,0-0.6,0.1c0.1-0.1,0.2-0.3,0.4-0.4c0,0,0,0.1,0.1,0.1C13.1,38.8,13.1,38.9,13.2,38.9
			C13.2,38.9,13.2,38.9,13.2,38.9z M15.5,38.5c-0.1,0.3-0.6,0.6-1,0.6c-0.4,0-1-0.2-1.4-0.5c0.2-0.4,0.8-0.7,1.3-0.7
			C14.9,37.9,15.3,38.2,15.5,38.5z M14.4,37.6c-0.2,0-0.3,0-0.5,0.1c0.1-0.1,0.2-0.2,0.3-0.3c0,0,0,0.1,0,0.1
			C14.4,37.5,14.4,37.6,14.4,37.6C14.5,37.6,14.5,37.6,14.4,37.6z M15.7,37.9c-0.4-0.1-0.9-0.3-1.3-0.6c0.2-0.4,0.9-0.6,1.3-0.6
			c0.4,0.1,0.8,0.4,1,0.7C16.6,37.7,16.1,38,15.7,37.9z M15.8,36.5c-0.1,0-0.3,0-0.5,0c0.1-0.1,0.2-0.2,0.3-0.2c0,0,0,0,0,0.1
			C15.7,36.4,15.8,36.5,15.8,36.5C15.8,36.5,15.8,36.5,15.8,36.5z M18.5,34.6C18.5,34.6,18.5,34.6,18.5,34.6c0,0.1,0.1,0.1,0.1,0.2
			c-0.1,0-0.2,0-0.3,0C18.4,34.6,18.4,34.6,18.5,34.6z M17.1,35.4C17.1,35.4,17.1,35.4,17.1,35.4c0.1,0.1,0.1,0.1,0.1,0.2
			c0,0,0,0,0,0c-0.1,0-0.2,0-0.3,0c0,0-0.1,0-0.1,0C16.9,35.5,17,35.4,17.1,35.4z M17,36.9c-0.4-0.1-0.9-0.4-1.2-0.7
			c0.2-0.3,0.9-0.5,1.3-0.4c0.4,0.1,0.7,0.5,0.9,0.7C17.9,36.8,17.4,37,17,36.9z M18.4,36c-0.3-0.1-0.8-0.4-1.1-0.8
			c0.3-0.3,0.9-0.4,1.3-0.3c0.4,0.1,0.7,0.5,0.8,0.8C19.2,36,18.7,36.1,18.4,36z M20,34.3c0.4,0.1,0.6,0.5,0.7,0.8
			c-0.2,0.2-0.7,0.3-1,0.2c-0.3-0.1-0.8-0.5-1-0.8C19,34.2,19.6,34.2,20,34.3z M18.5,32.6c0.2-0.3,0.6-0.6,1-0.6
			c0.1,0.3,0.2,0.7,0,1.1c-0.2,0.4-0.7,0.7-1,0.8C18.2,33.4,18.3,32.9,18.5,32.6z M16.8,33.3c0.1-0.3,0.6-0.7,1-0.7
			c0.2,0.3,0.3,0.7,0.1,1.1c-0.1,0.4-0.6,0.8-1,0.9C16.7,34.2,16.7,33.6,16.8,33.3z M16.6,34.6C16.6,34.6,16.6,34.6,16.6,34.6
			C16.6,34.6,16.6,34.6,16.6,34.6C16.6,34.6,16.6,34.6,16.6,34.6z M15.2,34.2c0.1-0.4,0.6-0.8,0.9-0.8c0.2,0.3,0.3,0.7,0.2,1.2
			c-0.1,0.4-0.6,0.9-1,1C15.2,35.2,15.1,34.6,15.2,34.2z M15.1,35.5C15.1,35.5,15.1,35.5,15.1,35.5C15.1,35.6,15.1,35.6,15.1,35.5
			C15.1,35.6,15.1,35.6,15.1,35.5C15.1,35.5,15.1,35.5,15.1,35.5z M13.7,35.3c0.1-0.4,0.5-0.9,0.9-0.9c0.2,0.2,0.4,0.7,0.3,1.2
			c-0.1,0.5-0.5,1-0.9,1.2C13.7,36.3,13.6,35.7,13.7,35.3z M13.7,36.7C13.7,36.7,13.6,36.7,13.7,36.7C13.6,36.7,13.6,36.7,13.7,36.7
			C13.6,36.7,13.6,36.6,13.7,36.7C13.6,36.6,13.7,36.7,13.7,36.7z M12.1,36.5c0-0.4,0.5-0.9,0.9-1.1c0.3,0.2,0.5,0.7,0.4,1.2
			c-0.1,0.5-0.5,1.1-0.8,1.3C12.2,37.6,12.1,37,12.1,36.5z M12.3,38C12.2,38,12.2,38.1,12.3,38C12.2,38.1,12.2,38.1,12.3,38
			c-0.1,0-0.1-0.1-0.1-0.1C12.2,37.9,12.2,38,12.3,38z M11.4,36.8c0.3,0.2,0.6,0.7,0.6,1.2c0,0.5-0.4,1.2-0.8,1.4
			c-0.4-0.3-0.6-1-0.6-1.4C10.6,37.6,11,37,11.4,36.8z M10.9,39.5c0,0.1-0.1,0.1-0.1,0.1c0,0,0-0.1,0-0.1c0-0.1,0-0.1,0-0.2
			C10.8,39.4,10.9,39.5,10.9,39.5z M9.9,38.4c0.3,0.2,0.7,0.7,0.7,1.2c0,0.5-0.2,1.3-0.6,1.5c-0.4-0.3-0.7-1-0.7-1.4
			C9.2,39.2,9.5,38.6,9.9,38.4z M9.7,41.2c0,0.1-0.1,0.1-0.1,0.2c0-0.1,0-0.1,0-0.2c0-0.1,0-0.2-0.1-0.3C9.6,41.1,9.6,41.1,9.7,41.2
			z M8.5,40.1c0.4,0.2,0.8,0.6,0.8,1.2c0.1,0.5-0.1,1.3-0.5,1.7C8.4,42.7,8,42,7.9,41.6C7.8,41.1,8.1,40.4,8.5,40.1z M8.5,43.4
			c0-0.1,0-0.1,0-0.2c0-0.1-0.1-0.2-0.1-0.3c0.1,0.1,0.2,0.2,0.3,0.2C8.6,43.2,8.5,43.3,8.5,43.4z M7.2,42.1c0.4,0.1,0.9,0.6,1,1.1
			c0.1,0.5,0,1.4-0.3,1.8c-0.5-0.2-1-0.9-1.1-1.3C6.6,43.2,6.9,42.4,7.2,42.1z M7.5,45.3c-0.1-0.1-0.1-0.3-0.2-0.4
			c0.1,0.1,0.3,0.2,0.4,0.3c0,0.1-0.1,0.2-0.1,0.3C7.6,45.4,7.5,45.3,7.5,45.3z M5.8,46c-0.2-0.5,0-1.3,0.3-1.7c0.4,0.1,1,0.5,1.2,1
			c0.2,0.5,0.2,1.4-0.2,1.9C6.6,47,6,46.4,5.8,46z M7,47.4c0,0.1-0.1,0.3-0.1,0.4c0-0.1-0.1-0.2-0.1-0.3c-0.1-0.2-0.2-0.3-0.4-0.5
			C6.6,47.2,6.8,47.3,7,47.4z M5.1,48.4c-0.2-0.5-0.2-1.4,0.1-1.8c0.4,0.1,1,0.4,1.3,0.9c0.3,0.5,0.3,1.4,0.1,2
			C6,49.5,5.4,48.9,5.1,48.4z M4.7,51.1c-0.3-0.5-0.3-1.4-0.1-1.8c0.5,0,1.1,0.3,1.5,0.8c0.3,0.5,0.5,1.4,0.3,2
			C5.8,52.1,5,51.6,4.7,51.1z M4.6,53.9C4.2,53.5,4,52.6,4.2,52c0.5,0,1.2,0.2,1.6,0.7c0.4,0.5,0.7,1.4,0.6,2.1
			C5.8,54.8,5,54.4,4.6,53.9z M4.8,56.9C4.3,56.5,4,55.5,4.2,55c0.5-0.1,1.3,0,1.8,0.5c0.5,0.5,0.9,1.4,0.9,2
			C6.2,57.6,5.3,57.3,4.8,56.9z M7.6,60.2c-0.7,0.2-1.7,0-2.2-0.3c-0.5-0.3-1-1.3-0.9-1.9c0.5-0.2,1.3-0.1,1.9,0.3
			C7,58.6,7.6,59.5,7.6,60.2z M8.8,63c-0.7,0.3-1.7,0.2-2.3-0.1c-0.6-0.3-1.2-1.2-1.2-1.8c0.5-0.3,1.3-0.3,2,0
			C8,61.4,8.7,62.2,8.8,63z M10.2,68.7c-0.7-0.1-1.6-0.9-1.8-1.6c0.4-0.4,1.3-0.7,2.1-0.6c0.8,0.2,1.8,0.8,2.1,1.5
			C12,68.5,10.9,68.8,10.2,68.7z M18.1,72c-0.4,0.7-1.5,1.4-2.3,1.5c-0.8,0.1-2-0.4-2.4-1c0.3-0.6,1.1-1.2,1.9-1.3
			C16.3,71.1,17.5,71.4,18.1,72z M19.4,75.3c-0.8,0.3-2.1-0.1-2.6-0.7c0.2-0.6,0.9-1.4,1.8-1.7c0.9-0.2,2.2-0.1,2.9,0.4
			C21.2,74.2,20.2,75,19.4,75.3z M23.9,73.6c0,0.1-0.1,0.2-0.2,0.2c0,0,0,0,0,0C13.7,71.5,6.5,62.7,6.5,52.9
			c0-8.7,5.2-16.4,13.2-19.6c0.1,0,0.1,0,0.2,0c0.2-0.3,0.6-0.6,0.9-0.6c0.3-0.1,0.8,0,1,0.2c0,0.3-0.4,0.6-0.7,0.8
			c-0.3,0.1-0.8,0.1-1.2,0c0,0,0,0,0,0C12,36.9,7,44.4,7,52.9c0,9.6,7.1,18.3,16.8,20.5C23.9,73.4,23.9,73.5,23.9,73.6z"/>
		<path d="M48.8,57.7c0.6,0,1.4-0.3,1.9-0.7c0.5-0.4,0.8-1.5,0.7-2.2c0-0.1-0.1-0.1-0.2-0.2c-0.1,0-0.3,0-0.4,0
			c-0.6,0-1.2,0.2-1.6,0.6c-0.1,0.1-0.2,0.3-0.3,0.4c0-0.2,0.1-0.4,0.1-0.7c0,0,0,0,0,0c0.7,0,1.6-0.5,2-0.9
			c0.5-0.5,0.7-1.6,0.4-2.2c0-0.1-0.1-0.1-0.2-0.1c0,0-0.1,0-0.2,0c-0.5,0-1.2,0.2-1.7,0.7c-0.1,0.1-0.2,0.2-0.3,0.4c0,0,0,0,0,0
			c0-0.2,0-0.4,0-0.5c0.7-0.1,1.4-0.6,1.8-1.1c0.4-0.6,0.4-1.6,0.1-2.1c0-0.1-0.1-0.1-0.2-0.1h0c-0.5,0-1.3,0.3-1.7,0.9
			c-0.1,0.1-0.1,0.2-0.2,0.3c0-0.2,0-0.3-0.1-0.5c0.7-0.2,1.3-0.8,1.6-1.3c0.3-0.5,0.3-1.5-0.1-2c-0.1-0.1-0.1-0.1-0.2-0.1
			c-0.3,0-0.7,0.2-1,0.5c0.3-0.3,0.5-0.6,0.6-0.9c0.3-0.6,0-1.5-0.3-1.9c-0.1-0.1-0.1-0.1-0.2-0.1c-0.2,0.1-0.5,0.2-0.8,0.4
			c0.2-0.3,0.4-0.5,0.4-0.8c0.2-0.5-0.1-1.4-0.5-1.8c-0.1-0.1-0.2-0.1-0.2,0c-0.2,0.1-0.4,0.2-0.7,0.4c0.1-0.2,0.2-0.5,0.3-0.7
			c0.1-0.5-0.2-1.4-0.7-1.7c-0.1,0-0.1,0-0.2,0c-0.2,0.1-0.4,0.2-0.5,0.4c0.1-0.2,0.2-0.5,0.2-0.7c0.1-0.6-0.3-1.3-0.8-1.5
			c-0.1,0-0.2,0-0.2,0c-0.2,0.1-0.3,0.2-0.4,0.4c0.1-0.2,0.1-0.4,0.1-0.6c0-0.6-0.5-1.2-0.9-1.4c-0.1,0-0.2,0-0.2,0
			c-0.1,0.1-0.3,0.2-0.4,0.4c0-0.2,0-0.4,0-0.5c-0.1-0.5-0.5-1.1-1-1.3c-0.1,0-0.2,0-0.2,0c-0.1,0.1-0.2,0.2-0.3,0.4
			c0-0.2,0-0.3,0-0.5c-0.1-0.5-0.6-1-1.1-1.1c-0.1,0-0.2,0-0.2,0.1c-0.1,0.1-0.2,0.2-0.2,0.4c0-0.1,0-0.3-0.1-0.4
			c-0.1-0.5-0.7-0.9-1.1-1c-0.1,0-0.2,0-0.2,0.1c-0.1,0.1-0.1,0.2-0.2,0.3c0-0.1,0-0.2-0.1-0.3c-0.2-0.4-0.7-0.8-1.2-0.9
			c-0.1,0-0.2,0-0.2,0.1c-0.1,0.1-0.1,0.2-0.1,0.3c0-0.1-0.1-0.2-0.1-0.3c-0.2-0.4-0.7-0.8-1.2-0.8c-0.1,0-0.2,0-0.2,0.1
			c-0.2,0.3-0.2,0.8-0.1,1.2c0,0-0.1,0-0.1,0c0,0,0,0,0,0c-0.3-0.3-0.6-0.5-0.9-0.6c-0.1,0-0.3,0-0.4,0c-0.4,0-0.7,0.1-0.8,0.3
			c0,0,0,0.1,0,0.2c0,0.4,0.4,0.8,0.8,1c0.2,0.1,0.4,0.1,0.7,0.1l0,0c0.1,0,0.4,0,0.6-0.1c0.1,0,0.1,0.1,0.2,0.1
			c-0.1,0-0.2,0-0.3,0.1c-0.4,0.2-0.7,0.6-0.8,1c0,0.1,0,0.2,0,0.2c0.2,0.2,0.5,0.3,0.8,0.3c0.1,0,0.3,0,0.4-0.1c0,0,0.1,0,0.2-0.1
			c0,0.1-0.1,0.2-0.1,0.2c0,0.1,0,0.2,0,0.2c0.2,0.3,0.6,0.4,0.9,0.4h0c0.1,0,0.2,0,0.3,0c0.1,0,0.1,0,0.2-0.1
			c-0.1,0.1-0.1,0.2-0.1,0.2c0,0.1,0,0.2,0,0.2c0.2,0.3,0.6,0.5,1,0.5c0.1,0,0.2,0,0.2,0c0.1,0,0.1,0,0.2-0.1
			c-0.1,0.1-0.1,0.2-0.2,0.3c0,0.1,0,0.1,0,0.2c0.2,0.3,0.7,0.6,1.1,0.6l0,0c0,0,0.1,0,0.1,0c0.1,0,0.2,0,0.3-0.1
			c-0.1,0.1-0.2,0.2-0.3,0.3c0,0.1-0.1,0.1,0,0.2c0.2,0.4,0.7,0.7,1.2,0.7c0,0,0,0,0,0c0.1,0,0.2,0,0.3,0c-0.1,0.1-0.2,0.2-0.3,0.3
			c0,0.1-0.1,0.1,0,0.2c0.1,0.4,0.7,0.8,1.2,0.9c0,0,0.1,0,0.1,0l0,0c0.1,0,0.2,0,0.3,0c-0.2,0.1-0.3,0.2-0.4,0.3
			c-0.1,0.1-0.1,0.1-0.1,0.2c0.1,0.4,0.6,0.9,1.1,1c0.1,0,0.2,0,0.3,0l0,0c0,0,0.1,0,0.1,0c-0.2,0.1-0.3,0.2-0.5,0.3
			c-0.1,0.1-0.1,0.1-0.1,0.2c0.1,0.4,0.5,1,1,1.1c0.1,0,0.3,0.1,0.5,0.1c-0.2,0.1-0.4,0.2-0.5,0.3c-0.1,0-0.1,0.1-0.1,0.2
			c0,0.5,0.4,1.1,1,1.3c0.2,0.1,0.3,0.1,0.5,0.1c-0.2,0-0.5,0.1-0.7,0.2c-0.1,0-0.1,0.1-0.1,0.2c-0.1,0.5,0.4,1.1,0.8,1.4
			c0.2,0.1,0.4,0.2,0.6,0.2c-0.3,0-0.5,0.1-0.7,0.1c-0.1,0-0.1,0.1-0.1,0.2c-0.1,0.5,0.2,1.2,0.7,1.5c0.2,0.1,0.4,0.2,0.7,0.3
			c-0.1,0-0.2,0-0.3,0c-0.2,0-0.4,0-0.6,0.1c-0.1,0-0.1,0.1-0.2,0.1c-0.2,0.5,0.1,1.3,0.5,1.7c0.2,0.2,0.4,0.3,0.7,0.4
			C46.5,52,46.3,52,46.1,52c-0.1,0-0.2,0-0.3,0c-0.1,0-0.2,0.1-0.2,0.1c-0.2,0.5,0,1.3,0.4,1.7c0.2,0.2,0.5,0.4,0.8,0.6
			c-0.4-0.2-0.8-0.3-1.1-0.3h0c-0.1,0-0.1,0-0.2,0.1c-0.3,0.5-0.3,1.3,0.1,1.8c0.3,0.5,1.1,1.1,1.8,1.3c0,0,0,0,0.1,0
			c0,0,0.1,0,0.1,0c-0.1,0.4-0.2,0.7-0.3,1.1c0-0.4-0.1-0.7-0.3-1c0,0,0,0,0,0c-0.4-0.6-1.2-1-1.8-1.1c-0.1,0-0.2,0-0.2,0.1
			c-0.4,0.5-0.4,1.3-0.1,1.9c0.3,0.6,1,1.3,1.7,1.6c0,0,0.1,0,0.1,0c0,0,0,0,0,0c-0.1,0.3-0.3,0.7-0.4,1c0-0.3,0-0.7-0.1-1
			c-0.3-0.7-1-1.2-1.7-1.3c-0.1,0-0.2,0-0.2,0c-0.5,0.4-0.6,1.3-0.4,1.9c0,0,0,0,0,0c0.2,0.6,0.9,1.5,1.5,1.9c0,0,0.1,0,0.1,0
			c-0.2,0.3-0.4,0.7-0.6,1c0.1-0.3,0.1-0.7,0-1c-0.2-0.8-0.9-1.4-1.5-1.6c-0.1,0-0.1,0-0.2,0c-0.6,0.3-0.8,1.3-0.7,1.9
			c0.1,0.7,0.7,1.6,1.3,2.1c0,0,0.1,0,0.1,0c-0.2,0.3-0.5,0.6-0.8,0.9c0.1-0.3,0.2-0.7,0.1-1c-0.1-0.9-0.8-1.6-1.3-1.9
			c-0.1,0-0.2,0-0.2,0c-0.6,0.3-1,1.1-0.9,1.8c0,0.7,0.4,1.8,1,2.4c0,0,0.1,0.1,0.1,0.1c-0.3,0.3-0.7,0.6-1,0.9
			c0.2-0.4,0.4-0.8,0.4-1.1c0.1-0.9-0.6-1.8-1.1-2.1c-0.1-0.1-0.1-0.1-0.2,0c-0.6,0.2-1.2,0.9-1.2,1.7c-0.1,0.7,0.2,1.9,0.6,2.6
			c0,0.1,0.1,0.1,0.1,0.1c-0.4,0.3-0.9,0.6-1.4,0.9c0.3-0.4,0.6-0.8,0.7-1.2c0.2-0.9-0.3-1.9-0.7-2.4c-0.1-0.1-0.1-0.1-0.2-0.1
			c-0.6,0.1-1.4,0.8-1.5,1.6c-0.2,0.7-0.2,1.9,0.2,2.7c0,0.1,0.1,0.1,0.2,0.1c0,0,0,0,0,0c0,0,0,0,0,0c-0.7,0.4-1.4,0.7-2.1,1
			c0.6-0.3,1.1-0.8,1.3-1.4c0.4-0.9,0-2-0.4-2.5c0-0.1-0.1-0.1-0.2-0.1l0,0c-0.7,0-1.5,0.6-1.8,1.3c-0.3,0.7-0.5,2-0.3,2.8
			c0,0.1,0.1,0.2,0.2,0.2c0,0,0,0,0.1,0l0,0c0.1,0,0.3,0,0.4,0c-0.8,0.3-1.6,0.5-2.4,0.7c-0.1,0-0.2,0.1-0.3,0.2
			c-0.1,0.1-0.1,0.2-0.1,0.3c0,0.2,0.2,0.4,0.4,0.4c0,0,0.1,0,0.1,0c0.6-0.1,1.3-0.3,1.9-0.5c0.3,0.9,1.4,1.8,2.2,2.1
			c0.2,0.1,0.4,0.1,0.7,0.1c0.8,0,1.8-0.4,2.2-0.8c0.1-0.1,0.1-0.1,0-0.2c-0.2-0.6-0.9-1.5-1.9-1.8c0,0,0,0,0,0
			c-0.3-0.1-0.6-0.1-1-0.1c0.4-0.2,0.8-0.4,1.2-0.6c0,0,0,0,0,0.1c0.5,0.8,1.6,1.5,2.4,1.6c0.1,0,0.2,0,0.3,0c0.8,0,1.9-0.5,2.3-1.2
			c0-0.1,0-0.2,0-0.2c-0.3-0.6-1.1-1.3-2.1-1.4c-0.1,0-0.2,0-0.3,0c-0.3,0-0.5,0-0.8,0.1c0.4-0.2,0.8-0.5,1.1-0.8c0,0,0,0.1,0,0.1
			c0.6,0.7,1.7,1.2,2.5,1.2h0c0,0,0,0,0,0c0.8,0,2-0.7,2.3-1.5c0-0.1,0-0.2,0-0.2c-0.4-0.5-1.2-1-2.2-1l0,0c-0.4,0-0.7,0.1-1.1,0.3
			c0.3-0.3,0.7-0.6,1-0.9c0,0,0,0.1,0.1,0.1c0.6,0.5,1.5,0.8,2.2,0.8c0.1,0,0.3,0,0.4,0c0.8-0.1,1.8-1,2-1.7c0-0.1,0-0.2-0.1-0.2
			c-0.4-0.4-1.2-0.7-1.9-0.7c-0.1,0-0.3,0-0.4,0c0,0,0,0,0,0c-0.3,0.1-0.7,0.2-1,0.4c0.3-0.3,0.5-0.7,0.8-1c0,0,0,0.1,0.1,0.1
			c0.4,0.3,1,0.4,1.7,0.4c0.3,0,0.6,0,0.9-0.1c0.8-0.2,1.5-1.2,1.7-1.9c0-0.1,0-0.2-0.1-0.2c-0.4-0.3-1-0.4-1.5-0.4
			c-0.3,0-0.5,0-0.8,0.1c-0.3,0.1-0.6,0.3-0.8,0.5c0.2-0.3,0.4-0.7,0.6-1c0,0,0,0,0.1,0.1c0.3,0.1,0.7,0.2,1.1,0.2
			c0.5,0,1-0.1,1.4-0.3c0.7-0.3,1.3-1.4,1.3-2.1c0-0.1,0-0.2-0.1-0.2c-0.3-0.2-0.7-0.2-1.1-0.2c-0.4,0-0.8,0.1-1.1,0.2c0,0,0,0,0,0
			c-0.2,0.1-0.4,0.3-0.6,0.5c0.1-0.3,0.3-0.6,0.4-0.9c0,0,0,0,0,0c0.2,0.1,0.4,0.1,0.7,0.1c0.6,0,1.3-0.2,1.7-0.5
			c0.6-0.4,1.1-1.5,1-2.1c0-0.1-0.1-0.1-0.1-0.2c-0.2-0.1-0.5-0.1-0.7-0.1c-0.5,0-1,0.1-1.4,0.4c-0.2,0.1-0.3,0.3-0.5,0.4
			c0.1-0.3,0.1-0.5,0.2-0.8C48.5,57.7,48.6,57.7,48.8,57.7z M45.1,58.4c-0.3-0.5-0.2-1.3,0.1-1.6c0.5,0.1,1.3,0.4,1.6,1
			c0.3,0.6,0.3,1.6-0.1,2.1C46.1,59.6,45.4,58.9,45.1,58.4z M44.1,60.7c-0.2-0.5-0.1-1.3,0.3-1.7c0.5,0.1,1.2,0.6,1.5,1.2
			c0.3,0.7,0.1,1.7-0.4,2.2C44.9,62.1,44.3,61.2,44.1,60.7z M42.8,62.9c-0.1-0.6,0.1-1.4,0.6-1.7c0.5,0.2,1.2,0.8,1.4,1.5
			c0.2,0.7-0.2,1.8-0.8,2.2C43.4,64.4,42.9,63.5,42.8,62.9z M38.9,66.8c0-0.7,0.6-1.3,1.1-1.5c0.5,0.4,1,1.2,1,1.9
			c0,0.8-0.7,1.8-1.5,2C39.1,68.6,38.9,67.5,38.9,66.8z M36.7,71c-0.3-0.8-0.3-2-0.2-2.6c0.1-0.7,0.8-1.3,1.4-1.4
			c0.4,0.5,0.9,1.4,0.7,2.2C38.4,69.9,37.5,70.9,36.7,71z M33.5,72.2c-0.2-0.9,0-2.1,0.3-2.7c0.3-0.7,1-1.2,1.6-1.2
			c0.3,0.5,0.7,1.6,0.3,2.3C35.4,71.5,34.3,72.3,33.5,72.2z M42.6,69c0.8,0,1.6,0.4,2,0.9c-0.3,0.7-1.4,1.3-2.1,1.3
			c-0.8,0-1.9-0.4-2.4-1.1C40.7,69.6,41.8,69,42.6,69z M46.6,63.8c0.7-0.2,1.6,0,2,0.3c-0.1,0.6-0.8,1.5-1.5,1.7
			c-0.7,0.2-1.8,0.1-2.4-0.3C45.1,64.9,45.9,64.1,46.6,63.8z M49.3,55.4c0.5-0.5,1.3-0.6,1.8-0.5c0.1,0.6-0.1,1.5-0.6,1.9
			c-0.5,0.4-1.4,0.7-2,0.6C48.4,56.8,48.8,55.9,49.3,55.4z M49.5,52.7c0.4-0.5,1.1-0.7,1.6-0.7c0.3,0.5,0.1,1.5-0.3,1.9
			c-0.4,0.4-1.2,0.9-1.8,0.8C48.7,54.1,49,53.2,49.5,52.7z M49.2,50.1c0.4-0.5,1-0.8,1.5-0.8c0.3,0.5,0.2,1.4-0.1,1.8
			c-0.3,0.5-1.1,1-1.7,1C48.7,51.5,48.9,50.6,49.2,50.1z M50.1,46.7c0.3,0.4,0.4,1.3,0.1,1.8c-0.2,0.5-0.9,1-1.5,1.2
			c-0.3-0.5-0.2-1.4,0.1-2C49,47.1,49.6,46.8,50.1,46.7z M48.6,47.5c-0.1,0.1-0.1,0.2-0.1,0.3c0-0.1-0.1-0.3-0.1-0.4
			c0.2-0.1,0.4-0.2,0.6-0.4C48.8,47.2,48.7,47.3,48.6,47.5z M49.2,44.3c0.3,0.4,0.5,1.2,0.3,1.7c-0.2,0.5-0.8,1.1-1.3,1.3
			c-0.3-0.5-0.3-1.4-0.2-1.9C48.2,44.8,48.8,44.4,49.2,44.3z M47.7,45.5c0-0.1-0.1-0.2-0.1-0.3c0.1-0.1,0.3-0.2,0.4-0.3
			c-0.1,0.1-0.2,0.3-0.2,0.4C47.8,45.3,47.8,45.4,47.7,45.5z M48.1,42.1c0.3,0.3,0.6,1.1,0.5,1.5c-0.1,0.5-0.6,1.1-1.1,1.3
			c-0.3-0.4-0.5-1.2-0.3-1.8C47.2,42.7,47.7,42.2,48.1,42.1z M46.7,43.1c0.1-0.1,0.2-0.2,0.3-0.2c0,0.1-0.1,0.2-0.1,0.3
			c0,0.1,0,0.1,0,0.2C46.8,43.3,46.7,43.2,46.7,43.1z M46.8,40.1c0.4,0.2,0.7,1,0.6,1.4c-0.1,0.5-0.5,1.1-0.9,1.4
			c-0.4-0.4-0.6-1.1-0.5-1.7C46.1,40.8,46.5,40.3,46.8,40.1z M45.7,41.3c0,0.1,0,0.1,0,0.2c0-0.1-0.1-0.1-0.1-0.2
			c0.1-0.1,0.2-0.1,0.2-0.2C45.8,41.1,45.8,41.2,45.7,41.3z M45.4,38.4c0.4,0.2,0.7,0.8,0.7,1.3c0,0.5-0.3,1.1-0.7,1.4
			c-0.4-0.3-0.7-1-0.6-1.5C44.7,39.1,45.1,38.6,45.4,38.4z M44.5,39.7c0-0.1-0.1-0.1-0.1-0.1c0.1-0.1,0.1-0.1,0.1-0.2
			c0,0.1,0,0.1,0,0.2C44.5,39.6,44.5,39.6,44.5,39.7z M43.9,36.8c0.4,0.2,0.8,0.7,0.8,1.2c0,0.4-0.2,1.1-0.6,1.4
			c-0.4-0.3-0.7-0.9-0.8-1.4C43.3,37.5,43.6,37.1,43.9,36.8z M43.1,38.1C43.1,38.1,43.1,38,43.1,38.1c-0.1-0.1,0-0.2,0-0.2
			C43.1,37.9,43.1,38,43.1,38.1C43.1,38.1,43.1,38.1,43.1,38.1z M42.4,35.5c0.4,0.1,0.8,0.6,0.9,1.1c0,0.4-0.1,1.1-0.4,1.4
			c-0.4-0.2-0.8-0.8-0.8-1.3C41.9,36.2,42.1,35.7,42.4,35.5z M41.7,36.7C41.7,36.7,41.7,36.7,41.7,36.7
			C41.7,36.7,41.6,36.7,41.7,36.7c0-0.1,0-0.1,0-0.1C41.7,36.6,41.7,36.7,41.7,36.7z M40.8,34.3c0.4,0.1,0.8,0.6,0.9,0.9
			c0.1,0.4,0,1-0.3,1.4c-0.4-0.2-0.8-0.7-0.9-1.2C40.3,35.1,40.5,34.6,40.8,34.3z M40.2,35.6C40.2,35.6,40.2,35.6,40.2,35.6
			C40.2,35.6,40.2,35.6,40.2,35.6C40.2,35.5,40.2,35.5,40.2,35.6C40.2,35.5,40.2,35.5,40.2,35.6z M39.1,33.4
			c0.4,0.1,0.8,0.5,0.9,0.8c0.1,0.4,0.1,1-0.2,1.4c-0.4-0.1-0.9-0.6-1-1C38.8,34.1,38.9,33.6,39.1,33.4z M38.7,34.6
			C38.7,34.6,38.7,34.6,38.7,34.6C38.7,34.6,38.7,34.6,38.7,34.6C38.7,34.6,38.7,34.6,38.7,34.6z M37.5,32.6c0.3,0,0.8,0.4,1,0.7
			c0.1,0.3,0.1,0.9-0.1,1.3c-0.4-0.1-0.9-0.5-1-0.9C37.2,33.3,37.3,32.8,37.5,32.6z M35.9,31.9c0.3,0,0.8,0.3,1,0.6
			c0.2,0.3,0.2,0.9,0.1,1.3c-0.4-0.1-0.9-0.4-1-0.8C35.7,32.6,35.7,32.2,35.9,31.9z M35.6,35.3c-0.3,0.1-0.8,0-1-0.2
			c0.1-0.3,0.3-0.7,0.7-0.8c0.4-0.1,1-0.1,1.2,0.2C36.4,34.8,35.9,35.2,35.6,35.3z M37,34.7c-0.1,0-0.2,0-0.3,0c0,0,0.1-0.1,0.1-0.1
			c0,0,0,0,0,0C36.9,34.6,36.9,34.6,37,34.7z M38.5,35.5c0,0-0.1,0-0.1,0c-0.1,0-0.2,0-0.3,0c0,0,0,0,0,0c0,0,0.1-0.1,0.1-0.1
			c0,0,0,0,0-0.1C38.3,35.4,38.4,35.5,38.5,35.5z M36.9,36c-0.3,0.1-0.8,0-1-0.3c0.1-0.3,0.4-0.7,0.8-0.8c0.4-0.1,1,0,1.3,0.3
			C37.8,35.6,37.3,35.9,36.9,36z M38.3,36.9c-0.4,0.1-0.8-0.1-1-0.4c0.1-0.3,0.5-0.7,0.9-0.7c0.4-0.1,1,0.1,1.3,0.4
			C39.2,36.5,38.6,36.8,38.3,36.9z M39.6,36.4C39.6,36.3,39.6,36.3,39.6,36.4c0.1,0,0.2,0.1,0.4,0.2c-0.1,0-0.2,0-0.3,0
			c0,0-0.1,0-0.1,0c0,0,0,0,0,0C39.5,36.5,39.6,36.4,39.6,36.4z M39.6,37.9c-0.4,0-0.9-0.2-1-0.5c0.2-0.3,0.5-0.6,1-0.7
			c0.4,0,1.1,0.2,1.3,0.6C40.5,37.6,39.9,37.8,39.6,37.9z M41,37.5C41,37.4,41,37.4,41,37.5c0.2,0,0.3,0.1,0.4,0.2
			c-0.2,0-0.3-0.1-0.4-0.1c0,0,0,0-0.1,0c0,0,0,0-0.1,0C40.9,37.6,40.9,37.5,41,37.5z M40.8,39.1c-0.4,0-0.9-0.3-1-0.6
			c0.2-0.3,0.6-0.6,1.1-0.6c0.5,0,1.1,0.3,1.3,0.7C41.8,38.9,41.2,39.1,40.8,39.1z M42.3,38.7C42.3,38.7,42.4,38.7,42.3,38.7
			c0.2,0,0.3,0.2,0.4,0.3c-0.2-0.1-0.4-0.1-0.5-0.1c0,0-0.1,0-0.1,0C42.2,38.9,42.3,38.8,42.3,38.7z M42,40.4c-0.4,0-0.9-0.3-1-0.7
			c0.2-0.3,0.7-0.6,1.2-0.6c0.5,0,1.1,0.4,1.3,0.9C43,40.3,42.4,40.4,42,40.4z M43.6,40.2C43.6,40.2,43.6,40.1,43.6,40.2
			c0.2,0.1,0.3,0.2,0.4,0.4c-0.2-0.1-0.4-0.2-0.6-0.2c0,0-0.1,0-0.1,0C43.4,40.3,43.5,40.2,43.6,40.2z M43.1,41.9
			c-0.4-0.1-0.8-0.5-0.9-0.8c0.3-0.3,0.8-0.5,1.3-0.5c0.5,0.1,1.1,0.6,1.2,1C44.2,41.9,43.5,41.9,43.1,41.9z M44.7,41.8
			C44.8,41.8,44.8,41.7,44.7,41.8c0.2,0.1,0.3,0.3,0.4,0.5C45,42.1,44.8,42,44.6,42c-0.1,0-0.1,0-0.2,0
			C44.5,41.9,44.6,41.9,44.7,41.8z M46.7,45.5c0.1,0.2,0.2,0.5,0.3,0.7c-0.2-0.2-0.4-0.4-0.6-0.5c-0.1,0-0.2-0.1-0.3-0.1
			c0.2,0,0.3,0,0.5-0.1C46.7,45.5,46.7,45.5,46.7,45.5z M45.9,43.5c0.1,0.2,0.2,0.4,0.3,0.7c-0.2-0.2-0.4-0.3-0.6-0.4
			c-0.1,0-0.1,0-0.2-0.1C45.5,43.7,45.6,43.7,45.9,43.5C45.8,43.6,45.8,43.5,45.9,43.5z M43.2,42.6c0.3-0.2,0.9-0.5,1.4-0.4
			c0.5,0.1,1.1,0.7,1.1,1.2c-0.5,0.2-1.2,0.2-1.6,0.1C43.6,43.4,43.2,42.9,43.2,42.6z M44.1,44.2c0.3-0.2,0.9-0.4,1.4-0.2
			c0.5,0.2,1.1,0.8,1.1,1.3c-0.5,0.2-1.3,0.1-1.7-0.1C44.4,45.1,44.1,44.6,44.1,44.2z M44.8,46c0.4-0.2,1-0.3,1.5-0.1
			c0.5,0.2,1,1,0.9,1.5c-0.6,0.1-1.3-0.1-1.8-0.3C45.1,47,44.8,46.4,44.8,46z M46.9,47.7L46.9,47.7c0.2,0,0.3,0,0.5,0
			c0.1,0,0.1,0,0.1-0.1c0.1,0.3,0.1,0.6,0.2,0.9c-0.2-0.3-0.4-0.5-0.6-0.6C47,47.8,46.9,47.8,46.9,47.7
			C46.8,47.7,46.8,47.7,46.9,47.7z M45.4,48c0.4-0.2,1.1-0.2,1.6,0.1c0.5,0.3,0.9,1.1,0.8,1.7c-0.6,0.1-1.4-0.2-1.8-0.5
			C45.5,49,45.3,48.4,45.4,48z M47.6,50L47.6,50c0.1,0,0.1,0,0.2,0c0.1,0,0.1,0,0.1-0.1c0,0.3,0.1,0.6,0.1,0.9
			c-0.1-0.3-0.3-0.5-0.5-0.7c-0.1-0.1-0.2-0.2-0.4-0.2C47.3,50,47.4,50,47.6,50z M45.7,50.1c0.4-0.1,1.2-0.1,1.6,0.3
			c0.5,0.4,0.8,1.2,0.6,1.8c-0.6,0-1.4-0.4-1.8-0.7C45.8,51.1,45.6,50.5,45.7,50.1z M48,52.4C48,52.4,48,52.4,48,52.4
			c0.1,0,0.1,0,0.2-0.1c0,0.2,0,0.4,0,0.5c0,0.2,0,0.3,0,0.5c-0.1-0.3-0.3-0.6-0.5-0.8c-0.1-0.1-0.3-0.2-0.4-0.3
			C47.5,52.3,47.7,52.4,48,52.4z M45.8,52.2c0.5-0.1,1.2,0,1.7,0.5c0.4,0.4,0.6,1.4,0.4,2c-0.6-0.1-1.4-0.6-1.8-0.9
			C45.8,53.3,45.7,52.6,45.8,52.2z M45.8,56.1c-0.3-0.4-0.4-1.2-0.1-1.6c0.5,0,1.2,0.2,1.6,0.7c0.4,0.5,0.5,1.5,0.2,2.1
			C46.8,57.1,46.1,56.5,45.8,56.1z M47.5,55c-0.1-0.2-0.3-0.3-0.5-0.5c0.3,0.2,0.6,0.3,0.9,0.3c0,0,0,0,0,0c0,0,0.1,0,0.1,0
			c0,0.4-0.1,0.7-0.1,1.1C47.8,55.6,47.7,55.3,47.5,55z M41,65c-0.1-0.6,0.3-1.4,0.8-1.6c0.5,0.3,1.1,1,1.2,1.7
			c0.1,0.8-0.4,1.8-1.1,2.1C41.4,66.6,41.1,65.6,41,65z M36.7,73c0.9,0.3,1.5,1,1.8,1.7c-0.5,0.6-1.9,0.9-2.6,0.7
			c-0.8-0.3-1.8-1.1-2-1.9C34.5,72.9,35.9,72.8,36.7,73z M39.9,71.2c0.9,0.1,1.6,0.7,1.9,1.3c-0.4,0.7-1.6,1.2-2.4,1
			c-0.8-0.1-1.8-0.8-2.3-1.5C37.8,71.4,39,71.1,39.9,71.2z M44.9,66.5c0.8-0.1,1.6,0.2,2.1,0.6c-0.2,0.7-1.1,1.5-1.8,1.6
			c-0.7,0.1-1.8-0.2-2.4-0.7C43.1,67.3,44.1,66.7,44.9,66.5z M48,61.1c0.7-0.3,1.5-0.2,2,0c0,0.6-0.5,1.6-1.2,1.8
			c-0.6,0.3-1.6,0.4-2.3,0.1C46.6,62.2,47.3,61.4,48,61.1z M48.9,58.2c0.6-0.4,1.4-0.4,1.9-0.3c0.1,0.6-0.3,1.6-0.9,1.9
			c-0.5,0.4-1.5,0.6-2.2,0.3C47.7,59.5,48.3,58.6,48.9,58.2z M31.7,73.8C31.6,73.8,31.6,73.8,31.7,73.8c-0.2,0-0.2-0.1-0.3-0.2
			c0-0.1,0-0.2,0.2-0.3c9.7-2.2,16.8-10.8,16.8-20.5c0-8.5-5.1-16-13-19.2c0,0,0,0,0,0c-0.4,0.1-1,0.1-1.2,0
			c-0.3-0.1-0.6-0.4-0.7-0.8c0.2-0.3,0.7-0.3,1-0.2c0.3,0.1,0.6,0.3,0.9,0.6c0.1,0,0.1,0,0.2,0c8,3.2,13.2,10.9,13.2,19.6
			C48.8,62.7,41.6,71.5,31.7,73.8z"/>
		<path fill="#EDAA00" d="M48.8,52.9c0-8.7-5.2-16.4-13.2-19.6c-0.1,0-0.1,0-0.2,0c-0.2-0.3-0.6-0.6-0.9-0.6c-0.3-0.1-0.8,0-1,0.2
			c0,0.3,0.4,0.6,0.7,0.8c0.3,0.1,0.8,0.1,1.2,0c0,0,0,0,0,0c7.9,3.2,13,10.7,13,19.2c0,9.6-7.1,18.3-16.8,20.5
			c-0.1,0-0.2,0.1-0.2,0.3c0,0.1,0.1,0.2,0.2,0.2c0,0,0,0,0,0C41.6,71.5,48.8,62.7,48.8,52.9z"/>
		<path fill="#EDAA00" d="M23.8,73.3C14,71.1,7,62.5,7,52.9c0-8.5,5.1-16,13-19.2c0,0,0,0,0,0c0.4,0.1,1,0.1,1.2,0
			c0.3-0.1,0.6-0.4,0.7-0.8c-0.2-0.3-0.7-0.3-1-0.2c-0.3,0.1-0.6,0.3-0.9,0.6c-0.1,0-0.1,0-0.2,0c-8,3.2-13.2,10.9-13.2,19.6
			c0,9.8,7.2,18.6,17.1,20.9c0,0,0,0,0,0c0.1,0,0.2-0.1,0.2-0.2C23.9,73.5,23.9,73.4,23.8,73.3z"/>
		<path fill="#EDAA00" d="M36.6,34.5c-0.3-0.3-0.9-0.3-1.2-0.2c-0.4,0.1-0.6,0.5-0.7,0.8c0.2,0.2,0.7,0.3,1,0.2
			C35.9,35.2,36.4,34.8,36.6,34.5z"/>
		<path fill="#EDAA00" d="M38,35.3c-0.3-0.3-0.9-0.4-1.3-0.3c-0.4,0.1-0.7,0.5-0.8,0.8c0.2,0.2,0.6,0.4,1,0.3
			C37.3,35.9,37.8,35.6,38,35.3z"/>
		<path fill="#EDAA00" d="M39.4,36.2c-0.2-0.3-0.9-0.5-1.3-0.4c-0.4,0.1-0.7,0.5-0.9,0.7c0.2,0.3,0.6,0.5,1,0.4
			C38.6,36.8,39.2,36.5,39.4,36.2z"/>
		<path fill="#EDAA00" d="M39.5,36.7c-0.4,0.1-0.8,0.4-1,0.7c0.1,0.3,0.6,0.5,1,0.5c0.4-0.1,0.9-0.3,1.3-0.6
			C40.6,36.9,40,36.7,39.5,36.7z"/>
		<path fill="#EDAA00" d="M40.9,37.9c-0.5,0-0.9,0.4-1.1,0.6c0.1,0.3,0.6,0.6,1,0.6c0.4,0,1-0.2,1.4-0.5
			C42,38.1,41.3,37.8,40.9,37.9z"/>
		<path fill="#EDAA00" d="M42.2,39.1c-0.5,0-0.9,0.3-1.2,0.6c0.1,0.3,0.6,0.6,1,0.7c0.4,0,1.1-0.1,1.5-0.4
			C43.3,39.6,42.7,39.1,42.2,39.1z"/>
		<path fill="#EDAA00" d="M43.4,40.6c-0.5-0.1-1,0.2-1.3,0.5c0.1,0.3,0.5,0.7,0.9,0.8c0.4,0.1,1.1,0,1.6-0.3
			C44.5,41.1,43.9,40.6,43.4,40.6z"/>
		<path fill="#EDAA00" d="M45.7,43.4c-0.1-0.5-0.7-1.1-1.1-1.2c-0.5-0.1-1.1,0.1-1.4,0.4c0.1,0.4,0.4,0.8,0.9,0.9
			C44.5,43.6,45.2,43.6,45.7,43.4z"/>
		<path fill="#EDAA00" d="M46.6,45.3c0-0.5-0.6-1.2-1.1-1.3c-0.5-0.2-1.1,0-1.4,0.2c0,0.4,0.4,0.9,0.8,1
			C45.3,45.4,46,45.5,46.6,45.3z"/>
		<path fill="#EDAA00" d="M47.3,47.5c0-0.5-0.4-1.3-0.9-1.5c-0.5-0.2-1.2-0.1-1.5,0.1c0,0.4,0.3,0.9,0.7,1.2
			C45.9,47.4,46.7,47.6,47.3,47.5z"/>
		<path fill="#EDAA00" d="M47.7,49.7c0.1-0.6-0.3-1.4-0.8-1.7c-0.5-0.3-1.2-0.2-1.6-0.1c-0.1,0.4,0.2,1,0.6,1.3
			C46.4,49.5,47.2,49.8,47.7,49.7z"/>
		<path fill="#EDAA00" d="M47.3,50.3c-0.5-0.4-1.2-0.4-1.6-0.3c-0.2,0.4,0.1,1.1,0.5,1.4c0.4,0.3,1.2,0.7,1.8,0.7
			C48.1,51.6,47.8,50.7,47.3,50.3z"/>
		<path fill="#EDAA00" d="M47.5,52.7c-0.5-0.4-1.2-0.6-1.7-0.5c-0.2,0.4,0,1.1,0.3,1.5c0.4,0.4,1.1,0.9,1.8,0.9
			C48.1,54.1,47.9,53.2,47.5,52.7z"/>
		<path fill="#EDAA00" d="M47.3,55.2c-0.4-0.5-1.1-0.7-1.6-0.7c-0.3,0.4-0.2,1.1,0.1,1.6c0.3,0.4,1,1,1.7,1.2
			C47.8,56.7,47.7,55.7,47.3,55.2z"/>
		<path fill="#EDAA00" d="M46.8,57.7c-0.4-0.6-1.1-0.9-1.6-1c-0.3,0.4-0.4,1.1-0.1,1.6c0.3,0.5,0.9,1.2,1.6,1.5
			C47.2,59.4,47.1,58.3,46.8,57.7z"/>
		<path fill="#EDAA00" d="M46,60.2c-0.3-0.6-1-1.1-1.5-1.2c-0.4,0.3-0.5,1.1-0.3,1.7c0.2,0.5,0.8,1.4,1.4,1.8
			C46,62,46.3,60.9,46,60.2z"/>
		<path fill="#EDAA00" d="M44.7,62.7c-0.2-0.7-0.8-1.2-1.4-1.5c-0.5,0.3-0.7,1.1-0.6,1.7c0.1,0.6,0.6,1.5,1.2,2
			C44.5,64.5,44.9,63.4,44.7,62.7z"/>
		<path fill="#EDAA00" d="M43.1,65.1c-0.1-0.7-0.7-1.4-1.2-1.7c-0.5,0.2-0.9,1-0.8,1.6c0,0.6,0.4,1.7,0.9,2.2
			C42.6,66.9,43.1,65.8,43.1,65.1z"/>
		<path fill="#EDAA00" d="M41,67.3c0-0.8-0.5-1.6-1-1.9c-0.5,0.2-1.1,0.9-1.1,1.5c-0.1,0.6,0.1,1.8,0.6,2.4C40.3,69.1,41,68,41,67.3
			z"/>
		<path fill="#EDAA00" d="M38.5,69.1c0.2-0.8-0.3-1.7-0.7-2.2c-0.6,0.1-1.2,0.7-1.4,1.4c-0.2,0.6-0.2,1.8,0.2,2.6
			C37.5,70.9,38.4,69.9,38.5,69.1z"/>
		<path fill="#EDAA00" d="M35.7,70.7c0.3-0.8,0-1.8-0.3-2.3c-0.6,0-1.3,0.5-1.6,1.2c-0.3,0.6-0.5,1.8-0.3,2.7
			C34.3,72.3,35.4,71.5,35.7,70.7z"/>
		<path fill="#EDAA00" d="M36.9,33.8c0.2-0.4,0.1-0.9-0.1-1.3c-0.2-0.3-0.6-0.6-1-0.6c-0.1,0.3-0.2,0.7,0,1.1
			C36,33.4,36.5,33.8,36.9,33.8z"/>
		<path fill="#EDAA00" d="M38.4,34.6c0.2-0.4,0.2-1,0.1-1.3c-0.1-0.3-0.6-0.7-1-0.7c-0.2,0.3-0.3,0.7-0.1,1.1
			C37.5,34.1,38,34.5,38.4,34.6z"/>
		<path fill="#EDAA00" d="M39.9,35.6c0.2-0.4,0.3-1,0.2-1.4c-0.1-0.4-0.6-0.8-0.9-0.8c-0.2,0.3-0.3,0.7-0.2,1.2
			C39,35,39.5,35.4,39.9,35.6z"/>
		<path fill="#EDAA00" d="M41.4,36.7c0.3-0.4,0.4-1,0.3-1.4c-0.1-0.4-0.5-0.9-0.9-0.9c-0.2,0.2-0.4,0.7-0.3,1.2
			C40.5,36,41,36.5,41.4,36.7z"/>
		<path fill="#EDAA00" d="M41.9,36.7c0.1,0.5,0.5,1.1,0.8,1.3c0.3-0.3,0.5-1,0.4-1.4c0-0.4-0.5-0.9-0.9-1.1
			C42.1,35.7,41.9,36.2,41.9,36.7z"/>
		<path fill="#EDAA00" d="M44.1,39.5c0.4-0.3,0.6-1,0.6-1.4c0-0.5-0.4-1-0.8-1.2c-0.3,0.2-0.6,0.7-0.6,1.2
			C43.4,38.5,43.7,39.2,44.1,39.5z"/>
		<path fill="#EDAA00" d="M45.3,41.1c0.4-0.3,0.7-1,0.7-1.4c0.1-0.5-0.3-1.1-0.7-1.3c-0.3,0.2-0.7,0.7-0.7,1.2
			C44.7,40.1,44.9,40.8,45.3,41.1z"/>
		<path fill="#EDAA00" d="M46.5,43c0.5-0.3,0.8-0.9,0.9-1.4c0.1-0.5-0.2-1.2-0.6-1.4c-0.4,0.2-0.8,0.6-0.8,1.2
			C45.9,41.8,46.1,42.6,46.5,43z"/>
		<path fill="#EDAA00" d="M47.4,45c0.5-0.2,1-0.9,1.1-1.3c0.1-0.5-0.1-1.2-0.5-1.5c-0.4,0.1-0.9,0.6-1,1.1
			C46.9,43.8,47.1,44.6,47.4,45z"/>
		<path fill="#EDAA00" d="M48.2,47.2c0.5-0.2,1.1-0.8,1.3-1.3c0.2-0.5,0-1.3-0.3-1.7c-0.4,0.1-1,0.5-1.2,1
			C47.8,45.9,47.8,46.8,48.2,47.2z"/>
		<path fill="#EDAA00" d="M48.7,49.6c0.6-0.1,1.2-0.7,1.5-1.2c0.2-0.5,0.2-1.4-0.1-1.8c-0.4,0.1-1,0.4-1.3,0.9
			C48.5,48.2,48.4,49.1,48.7,49.6z"/>
		<path fill="#EDAA00" d="M48.9,52.1c0.6-0.1,1.4-0.5,1.7-1c0.3-0.5,0.3-1.4,0.1-1.8c-0.5,0-1.1,0.3-1.5,0.8
			C48.9,50.6,48.7,51.5,48.9,52.1z"/>
		<path fill="#EDAA00" d="M48.9,54.8c0.7,0,1.5-0.4,1.8-0.8c0.4-0.4,0.6-1.4,0.3-1.9c-0.5,0-1.2,0.2-1.6,0.7
			C49,53.2,48.7,54.1,48.9,54.8z"/>
		<path fill="#EDAA00" d="M48.5,57.5c0.7,0.1,1.6-0.2,2-0.6c0.5-0.4,0.7-1.4,0.6-1.9c-0.5-0.1-1.3,0-1.8,0.5
			C48.8,55.9,48.4,56.8,48.5,57.5z"/>
		<path fill="#EDAA00" d="M47.7,60.2c0.7,0.2,1.7,0,2.2-0.3c0.5-0.3,1-1.3,0.9-1.9c-0.5-0.2-1.3-0.1-1.9,0.3
			C48.3,58.6,47.7,59.5,47.7,60.2z"/>
		<path fill="#EDAA00" d="M46.5,63c0.7,0.3,1.7,0.2,2.3-0.1c0.6-0.3,1.2-1.2,1.2-1.8c-0.5-0.3-1.3-0.3-2,0
			C47.3,61.4,46.6,62.2,46.5,63z"/>
		<path fill="#EDAA00" d="M44.8,65.6c0.6,0.4,1.7,0.5,2.4,0.3c0.7-0.2,1.4-1.1,1.5-1.7c-0.5-0.3-1.3-0.5-2-0.3
			C45.9,64.1,45.1,64.9,44.8,65.6z"/>
		<path fill="#EDAA00" d="M42.7,68c0.6,0.5,1.7,0.8,2.4,0.7c0.7-0.1,1.6-0.9,1.8-1.6c-0.4-0.4-1.3-0.7-2.1-0.6
			C44.1,66.7,43.1,67.3,42.7,68z"/>
		<path fill="#EDAA00" d="M40.2,70.2c0.5,0.6,1.6,1.1,2.4,1.1c0.7,0,1.8-0.7,2.1-1.3c-0.4-0.5-1.2-0.9-2-0.9
			C41.8,69,40.7,69.6,40.2,70.2z"/>
		<path fill="#EDAA00" d="M37.2,72c0.4,0.7,1.5,1.4,2.3,1.5c0.8,0.1,2-0.4,2.4-1c-0.3-0.6-1.1-1.2-1.9-1.3
			C39,71.1,37.8,71.4,37.2,72z"/>
		<path fill="#EDAA00" d="M35.9,75.3c0.8,0.3,2.1-0.1,2.6-0.7c-0.2-0.6-0.9-1.4-1.8-1.7c-0.9-0.2-2.2-0.1-2.9,0.4
			C34.1,74.2,35.1,75,35.9,75.3z"/>
		<path fill="#EDAA00" d="M18.7,34.5c0.2,0.3,0.6,0.7,1,0.8c0.3,0.1,0.8,0,1-0.2c-0.1-0.3-0.3-0.7-0.7-0.8
			C19.6,34.2,19,34.2,18.7,34.5z"/>
		<path fill="#EDAA00" d="M18.6,35c-0.4-0.1-1,0-1.3,0.3c0.2,0.3,0.7,0.6,1.1,0.8c0.3,0.1,0.8,0,1-0.3C19.2,35.5,18.9,35.1,18.6,35z
			"/>
		<path fill="#EDAA00" d="M17.2,35.8c-0.4-0.1-1,0.1-1.3,0.4c0.3,0.3,0.8,0.6,1.2,0.7c0.4,0.1,0.8-0.1,1-0.4
			C17.9,36.2,17.6,35.9,17.2,35.8z"/>
		<path fill="#EDAA00" d="M15.8,36.7c-0.4,0-1.1,0.2-1.3,0.6c0.3,0.3,0.9,0.5,1.3,0.6c0.4,0,0.8-0.2,1-0.5
			C16.6,37.1,16.2,36.8,15.8,36.7z"/>
		<path fill="#EDAA00" d="M14.4,37.9c-0.5,0-1.1,0.3-1.3,0.7c0.4,0.3,1,0.5,1.4,0.5c0.4,0,0.9-0.3,1-0.6
			C15.3,38.2,14.9,37.9,14.4,37.9z"/>
		<path fill="#EDAA00" d="M11.9,40c0.4,0.3,1.1,0.4,1.5,0.4c0.4,0,0.9-0.3,1-0.7c-0.2-0.3-0.7-0.6-1.2-0.6
			C12.6,39.1,12,39.6,11.9,40z"/>
		<path fill="#EDAA00" d="M11.9,40.6c-0.5,0.1-1.1,0.6-1.2,1c0.4,0.3,1.1,0.3,1.6,0.3c0.4-0.1,0.8-0.5,0.9-0.8
			C12.9,40.8,12.4,40.5,11.9,40.6z"/>
		<path fill="#EDAA00" d="M10.8,42.2c-0.5,0.1-1.1,0.7-1.1,1.2c0.5,0.2,1.2,0.2,1.6,0.1c0.4-0.1,0.8-0.6,0.9-0.9
			C11.9,42.3,11.3,42.1,10.8,42.2z"/>
		<path fill="#EDAA00" d="M9.8,44c-0.5,0.2-1.1,0.8-1.1,1.3c0.5,0.2,1.3,0.1,1.7-0.1c0.4-0.2,0.8-0.7,0.8-1
			C10.9,44,10.3,43.8,9.8,44z"/>
		<path fill="#EDAA00" d="M9,46c-0.5,0.2-1,1-0.9,1.5c0.6,0.1,1.3-0.1,1.8-0.3c0.4-0.2,0.8-0.8,0.7-1.2C10.1,45.8,9.5,45.7,9,46z"/>
		<path fill="#EDAA00" d="M8.3,48.1c-0.5,0.3-0.9,1.1-0.8,1.7c0.6,0.1,1.4-0.2,1.8-0.5C9.8,49,10,48.4,9.9,48
			C9.5,47.8,8.8,47.8,8.3,48.1z"/>
		<path fill="#EDAA00" d="M7.3,52.2c0.6,0,1.4-0.4,1.8-0.7c0.4-0.3,0.6-1,0.5-1.4C9.1,49.9,8.4,50,8,50.3
			C7.5,50.7,7.2,51.6,7.3,52.2z"/>
		<path fill="#EDAA00" d="M7.4,54.7c0.6-0.1,1.4-0.6,1.8-0.9c0.4-0.4,0.5-1.1,0.3-1.5c-0.5-0.1-1.2,0-1.7,0.5
			C7.4,53.2,7.2,54.1,7.4,54.7z"/>
		<path fill="#EDAA00" d="M8,55.2c-0.4,0.5-0.5,1.5-0.2,2.1c0.6-0.2,1.4-0.8,1.7-1.2c0.3-0.4,0.4-1.2,0.1-1.6
			C9.1,54.5,8.4,54.7,8,55.2z"/>
		<path fill="#EDAA00" d="M10.2,58.4c0.3-0.5,0.2-1.3-0.1-1.6c-0.5,0.1-1.3,0.4-1.6,1c-0.3,0.6-0.3,1.6,0.1,2.1
			C9.2,59.6,9.9,58.9,10.2,58.4z"/>
		<path fill="#EDAA00" d="M11.2,60.7c0.2-0.5,0.1-1.3-0.3-1.7c-0.5,0.1-1.2,0.6-1.5,1.2C9,60.9,9.3,62,9.8,62.4
			C10.4,62.1,11,61.2,11.2,60.7z"/>
		<path fill="#EDAA00" d="M11.4,64.9c0.6-0.5,1-1.4,1.2-2c0.1-0.6-0.1-1.4-0.6-1.7c-0.5,0.2-1.2,0.8-1.4,1.5
			C10.4,63.4,10.8,64.5,11.4,64.9z"/>
		<path fill="#EDAA00" d="M13.4,67.2c0.5-0.6,0.9-1.6,0.9-2.2c0.1-0.6-0.3-1.4-0.8-1.6c-0.5,0.3-1.1,1-1.2,1.7
			C12.2,65.8,12.7,66.9,13.4,67.2z"/>
		<path fill="#EDAA00" d="M15.8,69.3c0.4-0.7,0.6-1.8,0.6-2.4c0-0.7-0.6-1.3-1.1-1.5c-0.5,0.4-1,1.2-1,1.9
			C14.3,68,15,69.1,15.8,69.3z"/>
		<path fill="#EDAA00" d="M18.6,71c0.3-0.8,0.3-2,0.2-2.6c-0.1-0.7-0.8-1.3-1.4-1.4c-0.4,0.5-0.9,1.4-0.7,2.2
			C16.9,69.9,17.8,70.9,18.6,71z"/>
		<path fill="#EDAA00" d="M21.6,69.5c-0.3-0.7-1-1.2-1.6-1.2c-0.3,0.5-0.6,1.6-0.3,2.3c0.3,0.8,1.4,1.6,2.2,1.6
			C22,71.4,21.8,70.2,21.6,69.5z"/>
		<path fill="#EDAA00" d="M18.4,33.8c0.4-0.1,0.9-0.4,1-0.8c0.2-0.4,0.1-0.8,0-1.1c-0.3,0-0.8,0.3-1,0.6
			C18.3,32.9,18.2,33.4,18.4,33.8z"/>
		<path fill="#EDAA00" d="M16.9,34.6c0.4-0.1,0.9-0.5,1-0.9c0.1-0.4,0-0.9-0.1-1.1c-0.3,0-0.8,0.4-1,0.7
			C16.7,33.6,16.7,34.2,16.9,34.6z"/>
		<path fill="#EDAA00" d="M15.4,35.6c0.4-0.1,0.9-0.6,1-1c0.1-0.4,0-0.9-0.2-1.2c-0.4,0.1-0.8,0.5-0.9,0.8
			C15.1,34.6,15.2,35.2,15.4,35.6z"/>
		<path fill="#EDAA00" d="M14,36.7c0.4-0.2,0.8-0.7,0.9-1.2c0.1-0.4-0.1-0.9-0.3-1.2c-0.4,0.1-0.8,0.6-0.9,0.9
			C13.6,35.7,13.7,36.3,14,36.7z"/>
		<path fill="#EDAA00" d="M12.5,38c0.4-0.2,0.8-0.8,0.8-1.3c0.1-0.5-0.2-1-0.4-1.2c-0.4,0.1-0.8,0.6-0.9,1.1
			C12.1,37,12.2,37.6,12.5,38z"/>
		<path fill="#EDAA00" d="M11.2,39.5c0.4-0.3,0.7-0.9,0.8-1.4c0-0.5-0.3-1-0.6-1.2C11,37,10.6,37.6,10.6,38
			C10.6,38.5,10.8,39.1,11.2,39.5z"/>
		<path fill="#EDAA00" d="M10,41.1c0.4-0.3,0.7-1,0.6-1.5c0-0.5-0.4-1-0.7-1.2c-0.4,0.2-0.7,0.8-0.7,1.3C9.2,40.2,9.6,40.8,10,41.1z
			"/>
		<path fill="#EDAA00" d="M8.8,43c0.4-0.4,0.6-1.1,0.5-1.7c-0.1-0.5-0.5-1-0.8-1.2c-0.4,0.2-0.7,1-0.6,1.4C8,42,8.4,42.7,8.8,43z"/>
		<path fill="#EDAA00" d="M7.9,45c0.3-0.4,0.5-1.2,0.3-1.8c-0.1-0.5-0.6-1-1-1.1c-0.3,0.3-0.6,1.1-0.5,1.5C6.9,44.1,7.4,44.8,7.9,45
			z"/>
		<path fill="#EDAA00" d="M7.1,47.2c0.3-0.5,0.3-1.4,0.2-1.9c-0.2-0.5-0.7-0.9-1.2-1c-0.3,0.4-0.5,1.2-0.3,1.7
			C6,46.4,6.6,47,7.1,47.2z"/>
		<path fill="#EDAA00" d="M6.5,47.6c-0.3-0.5-0.9-0.9-1.3-0.9c-0.3,0.4-0.4,1.3-0.1,1.8c0.2,0.5,0.9,1,1.5,1.2
			C6.9,49.1,6.8,48.2,6.5,47.6z"/>
		<path fill="#EDAA00" d="M6.1,50.1c-0.4-0.5-1-0.8-1.5-0.8c-0.3,0.5-0.2,1.4,0.1,1.8c0.3,0.5,1.1,1,1.7,1
			C6.6,51.5,6.4,50.6,6.1,50.1z"/>
		<path fill="#EDAA00" d="M5.8,52.7C5.4,52.2,4.7,52,4.2,52c-0.3,0.5-0.1,1.5,0.3,1.9c0.4,0.4,1.2,0.9,1.8,0.8
			C6.6,54.1,6.3,53.2,5.8,52.7z"/>
		<path fill="#EDAA00" d="M6,55.4C5.5,55,4.7,54.8,4.2,55c-0.1,0.6,0.1,1.5,0.6,1.9c0.5,0.4,1.4,0.7,2,0.6C6.9,56.8,6.5,55.9,6,55.4
			z"/>
		<path fill="#EDAA00" d="M6.4,58.2c-0.6-0.4-1.4-0.4-1.9-0.3c-0.1,0.6,0.3,1.6,0.9,1.9c0.5,0.4,1.5,0.6,2.2,0.3
			C7.6,59.5,7,58.6,6.4,58.2z"/>
		<path fill="#EDAA00" d="M7.3,61.1c-0.7-0.3-1.5-0.2-2,0c0,0.6,0.5,1.6,1.2,1.8c0.6,0.3,1.6,0.4,2.3,0.1C8.7,62.2,8,61.4,7.3,61.1z
			"/>
		<path fill="#EDAA00" d="M8.7,63.8c-0.7-0.2-1.6,0-2,0.3c0.1,0.6,0.8,1.5,1.5,1.7c0.7,0.2,1.8,0.1,2.4-0.3
			C10.2,64.9,9.4,64.1,8.7,63.8z"/>
		<path fill="#EDAA00" d="M10.4,66.5c-0.8-0.1-1.6,0.2-2.1,0.6c0.2,0.7,1.1,1.5,1.8,1.6c0.7,0.1,1.8-0.2,2.4-0.7
			C12.2,67.3,11.2,66.7,10.4,66.5z"/>
		<path fill="#EDAA00" d="M12.7,69c-0.8,0-1.6,0.4-2,0.9c0.3,0.7,1.4,1.3,2.1,1.3c0.8,0,1.9-0.4,2.4-1.1C14.6,69.6,13.5,69,12.7,69z
			"/>
		<path fill="#EDAA00" d="M15.4,71.2c-0.9,0.1-1.6,0.7-1.9,1.3c0.4,0.7,1.6,1.2,2.4,1c0.8-0.1,1.8-0.8,2.3-1.5
			C17.5,71.4,16.3,71.1,15.4,71.2z"/>
		<path fill="#EDAA00" d="M18.6,73c-0.9,0.3-1.5,1-1.8,1.7c0.5,0.6,1.9,0.9,2.6,0.7c0.8-0.3,1.8-1.1,2-1.9
			C20.8,72.9,19.4,72.8,18.6,73z"/>
	</g>
	<path fill="#7A232E" d="M45.5,40.7c1.7-8.5,1.9-16.1,1.8-19.6c-2.5-0.4-5-0.6-7.7-0.6l0,0c-13.9,0-26,5.8-29.9,7.8
		c-0.4,7.2,0.3,14,2,20.1c1.5,5.2,3.8,10,6.8,14.3c3.5,4.9,7.1,7.9,9,9.3c4.7-3.2,8.6-7.7,11.6-13.3C42,53.6,44.1,47.5,45.5,40.7z"
		/>
	<path d="M50,18.7c-3.5-0.8-7-1.1-10.4-1.1C21.8,17.6,7,26.5,7,26.5C4.2,62.2,27.6,75.4,27.6,75.4C52.8,60,50,18.7,50,18.7z
		 M27.6,73.3c-1.7-1.2-5.9-4.3-9.9-10c-3.1-4.3-5.4-9.3-7-14.6c-1.9-6.5-2.5-13.6-2-21.2c1.3-0.7,4.4-2.3,8.6-3.9
		c5.3-2,13.5-4.4,22.4-4.4l0,0c3,0,6,0.3,8.8,0.8c0.1,3.1,0.1,11.5-1.8,20.9c-1.4,6.9-3.6,13.1-6.4,18.2
		C36.9,65.3,32.6,70,27.6,73.3z"/>
	<path fill="none" d="M23.8,34.8c-0.1-0.1-0.2-0.1-0.3-0.2c0,0,0,0.1,0,0.1C23.5,34.8,23.6,34.8,23.8,34.8z"/>
	<path d="M23.4,34.8c-0.1,0.2-0.2,0.4-0.4,0.6c-0.1,0.1-0.2,0.2-0.1,0.4c0.1,0.1,0.2,0.2,0.3,0.2c0,0,0.1,0,0.1,0
		c1-0.5,0.7-2,0.7-2.1c0-0.2-0.2-0.3-0.3-0.2c-0.2,0-0.3,0.2-0.2,0.3c0,0,0.1,0.4,0,0.8"/>
	<path d="M45,40.9c0-0.4-0.1-0.8-0.1-1.2c-0.4-3.3-1.6-5.7-3.4-7.2c-0.5-1-1.2-1.9-1.8-2.8c0.5-0.3,1-0.7,1.4-1.2
		c0.2-0.3,0.3-0.8,0.1-1.2c-0.1-0.4-0.5-0.7-0.9-0.8c-1.2-0.3-2-1-2.7-1.6c-0.3-0.2-0.5-0.4-0.7-0.5c-0.2-0.1-0.4-0.3-0.7-0.3
		c0.1-0.2,0.2-0.5,0.4-0.7c1.2-2.3,2.8-5.5,3.5-9.2C41.2,8.4,38.7,2.4,37.5,1c-0.1-0.2-0.6-0.7-1.3-0.7c-0.1,0-0.3,0-0.4,0.1
		c0,0,0,0,0,0c-1.3,0.5-1,2.1-0.8,2.9c0.2,0.8,0.4,1.9,0.7,2.8c0.2,0.6,0.3,1.2,0.4,1.6c0,0.1,0.1,0.3,0.1,0.4c-2.2-4-6.8-7.7-7-7.9
		c-0.5-0.4-1.2-0.4-1.7,0.1C27,0.8,26.9,1.5,27.3,2c0,0,0,0,0,0c0.3,0.5,3.3,4.5,4.9,7.5l0.1,0.1c0.5,0.9,1.4,2.6,1.4,3.2
		c-0.1,0-0.3,0.1-0.5,0.1c-0.1,0-0.2,0-0.3,0c-2,0-2.6-0.5-3-0.9c-0.1-0.1-0.1-0.1-0.2-0.1c-0.8-0.7-1.9-1-2.1-1
		c-0.5-0.1-1.1,0.1-1.4,0.6c-0.3,0.5-0.2,1,0.1,1.4c0,0,0,0-0.1,0c-2.1,0-5.4-0.9-5.5-0.9c-0.6-0.1-1.1,0.1-1.4,0.6
		c-0.3,0.5-0.2,1.1,0.2,1.5c1.9,2,5.5,2.9,11,2.9c1.5,0,2.8-0.1,3.7-0.1c0.3,0,0.6,0,0.8,0c-0.1,0.5-0.6,1.6-1.6,2.8
		c-1,1.3-1.7,2.7-2.2,3.6c-0.8,0.1-1.6,0.3-2.4,0.6c-0.4-0.3-0.9-0.6-1.4-0.8c-1.2-0.5-3-1.2-5.2-1.2c-1.5,0-2.7,0-4.1-2.6
		c-1.6-3-3.3-9.8-3.3-9.8c-0.2-0.6-0.8-1.1-1.4-1c-0.7,0.1-1.1,0.7-1.1,1.3c0,0.2,0.2,3.1,0.9,6.4c-0.2,0.1-0.4,0.1-0.6,0.2
		c-0.8-1.4-1.6-3.3-1.7-5c0-0.7-0.6-1.2-1.3-1.2c0,0,0,0,0,0c-0.7,0-1.2,0.5-1.3,1.2c0,0.2-0.2,4,1.4,7.3C9.3,19.2,9,19.6,9,20.1
		c0,0.4,0.1,4.2,2.8,5.5c1.4,0.7,4.1,0.8,7.5,0.9c1.3,0,2.7,0.1,3.1,0.2c0.3,0.1,0.6,0.1,0.9,0.2c0.1,0,0.2,0,0.4,0.1
		c-1.1,0.9-1.4,2.1-1.3,2.9c-3.2,4.1-3.4,4.7-3.4,4.9c0,0.1,0,0.2,0,0.3c0,1.8,0.8,2.7,1.5,3.1c0.5,0.4,1.2,0.6,1.9,0.6
		c0.3,0,0.7,0,1.1-0.2c0,0,0.1,0,0.5-0.1c0.2,0,0.5-0.2,0.7-0.3c0.1-0.1,0.2-0.2,0.3-0.3c0.3,0.2,0.6,0.3,1,0.3l0.1,0c0,0,0,0,0,0
		l0,0c0,0,0,0,0.1,0c0,0,0.1,0.1,0.1,0.1c0,0,0.2,0.3,0.4,0.8c-0.7,1.4-3.8,3.2-6.2,4.6c-0.5,0.3-0.9,0.5-1.4,0.8
		c-4.3,2.6-5,4.5-5.4,5.5c0,0.1-0.1,0.1-0.1,0.2c0,0,0,0.1,0,0.1l-1.6,4.7c0,0.1,0.1,0.1,0.1,0.2c0.3,1.1,1,2.1,1.5,3.1
		c0.6,1,1.2,2,1.8,3c1.3,2.2,2.7,4.3,4.3,6.3c1.5,2,3.2,3.7,5.3,5.1c0.7,0.5,1.5,0.9,2.2,1.4c0.1,0,0.1,0.1,0.2,0.1l3.3-1.1
		c0.1-0.1,0.3-0.3,0.5-0.4c0.7-0.6,1.4-1.1,2.1-1.8c1.4-1.4,2.8-2.8,4-4.4c1.1-1.6,2.3-3.1,3.3-4.7c1-1.6,1.7-3.3,2.6-4.9
		c0-0.1,0.1-0.1,0.1-0.2c0.5-1.4,1-2.7,1.6-4.1c0.4-0.9,0.8-1.7,1.1-2.6c0.1-0.2,0.1-0.4,0.1-0.6c0.1-0.6,0.2-1.2,0.2-1.8
		C46.1,44.5,45.7,42.3,45,40.9z M22.7,25.4c-1.4-0.4-8.2,0-10.3-1c-2.1-1-2.1-4.3-2.1-4.3c0.5,0.7,1.1,1,1.1,1l0.4-1.2
		c-2.4-3.2-2.2-8.2-2.2-8.2c0.2,3.3,2.8,7.1,2.8,7.1c0.1-0.9,1.2-1.2,1.2-1.2c-0.3,0.9-0.4,2-0.4,2c1.5,2.6,3.4,2.9,3.4,2.9
		c-2.5-4.5-3-12.6-3-12.6s1.7,6.9,3.4,10.1c1.7,3.2,3.5,3.3,5.2,3.3c1.7,0,3.3,0.5,4.7,1.1c0.5,0.2,0.9,0.5,1.2,0.7
		c-0.8,0.4-1.5,0.8-2.2,1.2c0,0-0.1,0-0.1,0C25,25.7,23.7,25.6,22.7,25.4z M40.4,60.3l-3.8,5.3l-5.6,6l-3.4,2.5l-7.1-6.7l-4.7-6.1
		l-2.9-5.7l1.7-5c0.3-0.7,0.5-2.4,4.9-5.1c3.4-2,7.6-4.3,8.3-6.5c-0.3-1.2-0.8-1.7-0.8-1.7c0,0,0,0-0.1-0.1c0.2,0,0.4-0.1,0.7-0.1
		c0.5,0.7,1.8,3.1,0.5,8.4c-1.5,6.6,3.3,8.9,3.3,8.9s-0.7-1.1-0.8-2c0,0,2.8,3,4.9,4.3c0,0,2.3-3.8,4.8-5.8c0,0,0.4,0.3,0,0.7
		c0,0,0.2-0.2,0.4-0.5c0.1-0.1,0.2-0.2,0.2-0.3c0-0.1,0.1-0.1,0.1-0.2c0.8-1.3,2-3.8,2-7.7c0-0.9-0.1-1.8-0.2-2.9
		c-0.3-2.4-1-4-1.9-5.1c-0.1-0.1-0.2-0.2-0.2-0.3c0,0,0,0,0,0c-0.1-0.1-0.1-0.1-0.2-0.2c0,0,0,0,0,0c-0.1-0.1-0.1-0.1-0.2-0.2
		c0,0,0,0,0,0c-0.3-0.2-0.5-0.4-0.8-0.5c0,0,0,0,0,0c-0.1,0-0.2-0.1-0.2-0.1c0,0,0,0,0,0c-0.1,0-0.1-0.1-0.2-0.1c0,0,0,0-0.1,0
		c-0.1,0-0.1-0.1-0.2-0.1c0,0,0,0,0,0c-0.2-0.1-0.4-0.1-0.5-0.2c0,0,0,0,0,0c-0.1,0-0.1,0-0.2,0c0,0,0,0-0.1,0c-0.1,0-0.1,0-0.2,0
		c0,0-0.1,0-0.1,0c-0.1,0-0.1,0-0.2,0c0,0-0.1,0-0.1,0c-0.1,0-0.1,0-0.2,0c0,0,0,0-0.1,0c-0.1,0-0.2,0-0.2,0c-0.4,0-0.8,0-1.1,0.1
		c0-0.5-0.1-0.8-0.1-0.8c0-0.2-0.2-0.2-0.4-0.2c-0.2,0-0.2,0.2-0.2,0.4c0,0,0.3,0.9-0.3,1.8c-0.5,0.8-1.6,1.4-3.1,1.7
		c-2.5,0.4-4.6,0.7-6.2,0.9c0,0,0,0-0.1,0c0.1-0.2,0.2-0.3,0.3-0.5c0.1-0.2,0.2-0.3,0.3-0.5c0.7-1,1.7-1.8,1.7-1.8
		c0.1-0.1,0.2-0.3,0.1-0.4c-0.1-0.1-0.3-0.2-0.4-0.1c-0.3,0.2-0.7,0.4-0.9,0.6c-0.6,0.4-1.1,0.7-1.5,1.2c-0.4,0.6-1.3,1.4-1.5,1.6
		c-0.4,0.1-0.6,0.1-0.8,0.2c-0.4,0.1-1.2,0.2-1.8-0.3c-0.6-0.4-0.9-1.1-0.9-2.1c0.1-0.4,1.8-2.7,3.4-4.7c0.1-0.1,0.1-0.2,0.1-0.2
		c0-0.1-0.3-1.6,1.4-2.5c0.4-0.2,0.8-0.4,1.2-0.7c1.8-1,3.9-2.3,5.7-2.1c0,0,0.1,0,0.1,0c0.3-0.7,1.2-2.6,2.4-4.1
		c1.5-1.9,3-4.9,0.8-4.9c0,0-0.1,0-0.1,0c-0.8,0-2.6,0.2-4.6,0.2c-3.6,0-8.1-0.4-10.1-2.5c0,0,3.5,0.9,5.8,0.9
		c1.6,0,2.6-0.5,1.1-2.1c0,0,1,0.2,1.5,0.7c0.6,0.5,1.3,1.4,4,1.4c0.1,0,0.2,0,0.3,0c3-0.1,1.6-2.7,0.2-5.3c-1.7-3.2-4.9-7.5-5-7.7
		C28.5,1.4,33,5,35,8.8c2,3.7,2,4.5,2.2,4.5c0,0,0,0,0,0c0.2-0.1,0.5-3.8,0-5.9c-0.5-2.1-1.7-5.6-1.1-5.9c0,0,0,0,0,0
		c0.7,0,3.7,6.3,2.6,12.4c-1,5.1-3.9,9.4-4.7,11.6c0.1,0.1,0.2,0.2,0.2,0.3c0,0.1,0.1,0.2,0.2,0.2c0.1,0,0.2,0,0.3-0.1
		c0,0,0.7-0.8,1.3-0.4c0.2,0.1,0.4,0.3,0.6,0.5c0.8,0.6,1.8,1.5,3.2,1.9c-0.4,0.5-1.3,1.5-3.3,0.9c0,0-1.5-0.5-2.3-1.1
		c0.2-0.2,0.5-0.4,0.7-0.3c0.1,0,0.3,0.1,0.5,0.2c0.4,0.2,0.8,0.4,1.4,0.2c0.2,0,0.2-0.2,0.2-0.4c0-0.2-0.2-0.2-0.4-0.2
		c-0.4,0.1-0.7,0-1-0.2c-0.2-0.1-0.4-0.2-0.7-0.2c-0.7-0.1-1.3,0.7-1.4,0.8c-0.1,0.1-0.1,0.3,0,0.4c0.8,0.8,2.6,1.4,2.7,1.4
		c0.4,0.1,0.8,0.2,1.2,0.2c0.9,0.9,2,2.2,2.8,3.9c1.4,1,2.7,2.9,3.2,6.5c0.1,0.5,0.1,0.9,0.1,1.4c0.7,1.2,1.1,3.3,1.1,6.3
		C44.8,51.7,40.7,60,40.4,60.3z M37.2,39.6c0.1,0.2,3,6.8,1.1,11.3c0,0-3.6,2.9-3.7,3.5c0,0-3.2-2.3-4.6-4.9
		c-1.3-2.4-0.3-6.7-0.5-8.1c0-0.1,0-0.2-0.1-0.2c-0.1-0.2-0.1-0.2,0-0.2c0.2,0,1.5,2.6,1,5.4c0,0,1.5-4.4-1.4-8.6c0,0,0,0,0.1,0
		c0.4,0,2.5,0.2,5.4,4.6c0,0-0.3-3.8-5.6-5.3c0.9-0.1,1.9-0.3,2.9-0.5c1.7-0.3,2.9-1,3.5-2c0.3-0.4,0.4-0.9,0.4-1.3
		c1.1,0,2.6,0.3,3.4,1.8c1.3,2.5,1.6,2.7,2.2,4.8c0.7,2.2,0.6,5.3,0,6.8c-0.6,1.5-2,3.2-2,3.2S40.9,43.6,37.2,39.6z"/>
	<path d="M28.6,27.4c0,0.1-0.2,0.3-0.5,0.7l-0.6,0.6c-0.2,0.2-0.4,0.4-0.6,0.6c-0.1,0.1-0.1,0.1-0.1,0.2c0,0.2,0,0.7,0.6,0.7
		c0.1,0,0.3,0,0.6-0.1c0.1,0,0.3,0,0.4-0.1c1.1-0.2,1.8-1.4,1.9-2.2c0-0.2,0-0.4-0.2-0.6c-0.2-0.2-0.4-0.3-0.7-0.3
		C29,26.9,28.8,26.9,28.6,27.4z M29.7,27.7c0,0.5-0.6,1.6-1.4,1.7c-0.2,0-0.3,0-0.4,0.1c-0.2,0-0.4,0.1-0.5,0.1c0,0,0,0,0,0
		c0,0,0,0,0,0c0.1-0.1,0.2-0.2,0.3-0.3c0.1,0.1,0.2,0.1,0.4,0.1c0.2,0,0.4-0.1,0.6-0.4c0.2-0.3,0.3-0.5,0.2-0.7
		c0-0.1-0.1-0.1-0.1-0.2c0.2-0.3,0.4-0.5,0.4-0.6c0,0,0.1,0,0.1,0c0.1,0,0.2,0,0.3,0.1C29.7,27.6,29.7,27.6,29.7,27.7z"/>
	<path d="M12.4,22.7c0,0,0.8,0.6,1.7,0.5c0,0-1.2-1.5-1.4-2L12.4,22.7z"/>
	<path fill="#D1C09A" d="M43.7,41.3c0-0.4-0.1-0.9-0.1-1.4c-0.5-3.5-1.7-5.5-3.2-6.5c-0.9-1.7-1.9-3-2.8-3.9c-0.3,0-0.7-0.1-1.2-0.2
		c-0.1,0-1.9-0.7-2.7-1.4c-0.1-0.1-0.1-0.3,0-0.4c0.1-0.1,0.7-0.8,1.4-0.8c0.2,0,0.5,0.1,0.7,0.2c0.3,0.2,0.6,0.3,1,0.2
		c0.2,0,0.3,0,0.4,0.2c0,0.2,0,0.3-0.2,0.4c-0.6,0.2-1.1-0.1-1.4-0.2c-0.2-0.1-0.3-0.2-0.5-0.2c-0.2,0-0.5,0.2-0.7,0.3
		c0.8,0.6,2.3,1.1,2.3,1.1c2,0.6,2.9-0.4,3.3-0.9c-1.4-0.4-2.5-1.2-3.2-1.9c-0.2-0.2-0.4-0.3-0.6-0.5c-0.6-0.4-1.3,0.4-1.3,0.4
		C34.8,26,34.7,26,34.6,26c-0.1,0-0.2-0.1-0.2-0.2c0,0,0-0.1-0.2-0.3c0.7-2.2,3.7-6.4,4.7-11.6C40,7.9,36.9,1.6,36.3,1.6
		c0,0,0,0,0,0c-0.6,0.2,0.6,3.8,1.1,5.9c0.5,2.1,0.2,5.8,0,5.9c0,0,0,0,0,0c-0.2,0-0.3-0.8-2.2-4.5c-2-3.8-6.6-7.4-6.7-7.5
		c0.1,0.1,3.3,4.5,5,7.7c1.4,2.6,2.9,5.2-0.2,5.3c-0.1,0-0.2,0-0.3,0c-2.8,0-3.5-0.9-4-1.4c-0.6-0.5-1.5-0.7-1.5-0.7
		c1.5,1.6,0.5,2.1-1.1,2.1c-2.2,0-5.8-0.9-5.8-0.9c2,2.1,6.5,2.5,10.1,2.5c2,0,3.7-0.1,4.6-0.2c0,0,0.1,0,0.1,0c2.2,0,0.7,3-0.8,4.9
		c-1.2,1.6-2.1,3.4-2.4,4.1c0,0-0.1,0-0.1,0c-1.8-0.2-4,1.1-5.7,2.1c-0.4,0.2-0.8,0.5-1.2,0.7c-1.7,0.9-1.4,2.4-1.4,2.5
		c0,0.1,0,0.2-0.1,0.2c-1.6,2-3.3,4.3-3.4,4.7c0,1,0.3,1.7,0.9,2.1c0.6,0.4,1.5,0.4,1.8,0.3c0.2-0.1,0.4-0.1,0.8-0.2
		c0.2-0.2,1.1-1,1.5-1.6c0.3-0.5,0.8-0.8,1.5-1.2c0.3-0.2,0.6-0.4,0.9-0.6c0.1-0.1,0.3-0.1,0.4,0.1c0.1,0.1,0.1,0.3-0.1,0.4
		c0,0-1.1,0.8-1.7,1.8c-0.1,0.2-0.2,0.4-0.3,0.5c-0.1,0.2-0.2,0.3-0.3,0.5c0,0,0,0,0.1,0c1.6-0.2,3.7-0.5,6.2-0.9
		c1.6-0.3,2.6-0.8,3.1-1.7c0.5-0.9,0.3-1.8,0.3-1.8c0-0.2,0-0.3,0.2-0.4c0.2,0,0.3,0,0.4,0.2c0,0,0.1,0.3,0.1,0.8
		c0.3-0.1,0.7-0.1,1.1-0.1c0.1,0,0.2,0,0.2,0c0,0,0,0,0.1,0c0.1,0,0.1,0,0.2,0c0,0,0.1,0,0.1,0c0.1,0,0.1,0,0.2,0c0,0,0.1,0,0.1,0
		c0.1,0,0.1,0,0.2,0c0,0,0,0,0.1,0c0.1,0,0.1,0,0.2,0c0,0,0,0,0,0c0.2,0,0.4,0.1,0.5,0.2c0,0,0,0,0,0c0.1,0,0.1,0.1,0.2,0.1
		c0,0,0,0,0.1,0c0.1,0,0.1,0.1,0.2,0.1c0,0,0,0,0,0c0.1,0,0.2,0.1,0.2,0.1c0,0,0,0,0,0c0.3,0.1,0.5,0.3,0.8,0.5c0,0,0,0,0,0
		c0.1,0.1,0.1,0.1,0.2,0.2c0,0,0,0,0,0c0.1,0.1,0.1,0.1,0.2,0.2c0,0,0,0,0,0c0.1,0.1,0.2,0.2,0.2,0.3C42,36,42.7,37.6,43,40
		c0.1,1,0.2,2,0.2,2.9c0,4-1.2,6.5-2,7.7c0,0.1-0.1,0.1-0.1,0.2c-0.1,0.1-0.2,0.2-0.2,0.3c-0.3,0.3-0.4,0.5-0.4,0.5
		c0.4-0.4,0-0.7,0-0.7c-2.5,2-4.8,5.8-4.8,5.8c-2.2-1.2-4.9-4.3-4.9-4.3c0.1,0.9,0.8,2,0.8,2s-4.8-2.3-3.3-8.9
		c1.2-5.3,0-7.7-0.5-8.4c-0.2,0-0.5,0.1-0.7,0.1c0,0,0,0,0.1,0.1c0,0,0.5,0.5,0.8,1.7c-0.6,2.2-4.9,4.4-8.3,6.5
		c-4.4,2.6-4.6,4.4-4.9,5.1l-1.7,5l2.9,5.7l4.7,6.1l7.2,6.9l2.4-1.9l6.5-6.8l3.8-5.3c0.3-0.3,4.4-8.6,4.4-12.7
		C44.8,44.6,44.4,42.4,43.7,41.3z M30.3,27.8c-0.1,0.8-0.8,2.1-1.9,2.2c-0.2,0-0.3,0-0.4,0.1c-0.2,0-0.4,0.1-0.6,0.1
		c-0.6,0-0.6-0.5-0.6-0.7c0-0.1,0-0.2,0.1-0.2c0.2-0.2,0.4-0.4,0.6-0.6l0.6-0.6c0.3-0.3,0.5-0.6,0.6-0.7c0.1-0.3,0.3-0.4,0.7-0.4
		c0.3,0,0.5,0.1,0.7,0.3C30.2,27.3,30.3,27.6,30.3,27.8z M23.3,35.8c0,0-0.1,0-0.1,0c-0.1,0-0.2-0.1-0.3-0.2c-0.1-0.1,0-0.3,0.1-0.4
		c0.2-0.1,0.3-0.3,0.4-0.6c0,0,0-0.1,0-0.1c0.1-0.4,0-0.8,0-0.8c0-0.2,0.1-0.3,0.2-0.3c0.2,0,0.3,0.1,0.3,0.2
		C24,33.8,24.2,35.3,23.3,35.8z"/>
	<path fill="#D1C09A" d="M35.9,33.2c0,0.4-0.1,0.8-0.4,1.3c-0.6,1-1.8,1.7-3.5,2c-1,0.2-2,0.3-2.9,0.5c5.3,1.5,5.6,5.3,5.6,5.3
		c-2.9-4.4-5.1-4.6-5.4-4.6c0,0-0.1,0-0.1,0c2.9,4.3,1.4,8.6,1.4,8.6c0.4-2.8-0.9-5.4-1-5.4c0,0,0,0.1,0,0.2c0,0.1,0,0.1,0.1,0.2
		c0.2,1.4-0.8,5.7,0.5,8.1c1.4,2.6,4.6,4.9,4.6,4.9c0.1-0.7,3.7-3.5,3.7-3.5c1.9-4.4-1-11.1-1.1-11.3c3.6,4,2.2,10.2,2.2,10.2
		s1.4-1.7,2-3.2c0.6-1.5,0.7-4.6,0-6.8c-0.7-2.2-0.9-2.4-2.2-4.8C38.5,33.5,37,33.2,35.9,33.2z"/>
	<path fill="#AE9574" d="M29.3,27.5c0,0.1-0.2,0.4-0.4,0.6c0,0,0.1,0.1,0.1,0.2c0.1,0.2,0,0.5-0.2,0.7c-0.2,0.2-0.4,0.4-0.6,0.4
		c-0.2,0-0.3-0.1-0.4-0.1c-0.1,0.1-0.2,0.2-0.3,0.3c0,0,0,0,0,0c0,0,0,0,0,0c0.1,0,0.3,0,0.5-0.1c0.1,0,0.3,0,0.4-0.1
		c0.8-0.1,1.4-1.2,1.4-1.7c0-0.1,0-0.1,0-0.2c-0.1-0.1-0.2-0.1-0.3-0.1C29.3,27.5,29.3,27.5,29.3,27.5z"/>
	<path fill="#EDAA00" d="M25.8,26.4C25.8,26.4,25.8,26.3,25.8,26.4c0.8-0.4,1.5-0.9,2.3-1.3c-0.3-0.2-0.7-0.5-1.2-0.7
		c-1.4-0.6-2.9-1.1-4.7-1.1c-1.7,0-3.5-0.1-5.2-3.3C15.3,16.9,13.6,10,13.6,10s0.5,8.1,3,12.6c0,0-1.9-0.3-3.4-2.9
		c0,0,0.1-1.2,0.4-2c0,0-1.1,0.2-1.2,1.2c0,0-2.6-3.8-2.8-7.1c0,0-0.2,5,2.2,8.2l-0.4,1.2c0,0-0.6-0.4-1.1-1c0,0,0,3.4,2.1,4.3
		c2.1,1,8.9,0.6,10.3,1C23.7,25.6,25,25.7,25.8,26.4z M12.4,22.7l0.4-1.5c0.1,0.5,1.4,2,1.4,2C13.2,23.3,12.4,22.7,12.4,22.7z"/>
	<path fill="#AE9574" d="M29.9,38.1c0,0,2.3,0.8,4.7,4.8c0,0,1.1-1.5-0.2-3.1c0,0,1.8,1.3,0.7,4.2c0,0,2.2-2,1.9-4.3
		c0,0,2.1,5.3,1.4,10.2c0,0-0.9,0.9-3.8,3.6c0,0-2.4-1.9-3.6-3.4c0,0-1.4-1.1-1.1-4.5c0.3-3.4,0.2-3,0-3.6c-0.2-0.7,0.6,1.8,0.4,4.6
		c0,0,0.9-0.2,1.1-2.9C31.5,41.1,31.1,39,29.9,38.1z"/>
	<g>
		<path fill="#EDAA00" d="M30.5,15.8c2,0,3.7-0.1,4.6-0.2c0,0,0.1,0,0.1,0c2.2,0,0.7,3-0.8,4.9c-1.2,1.5-2,3.3-2.4,4.1
			c0.8,0.3,1.4,0.7,2.2,0.9c1-2.3,3.8-6.9,4.7-11.6C40,7.9,36.9,1.6,36.3,1.6c0,0,0,0,0,0c-0.6,0.2,0.6,3.8,1.1,5.9
			c0.5,2.1,0.2,5.8,0,5.9c0,0,0,0,0,0c-0.2,0-0.3-0.8-2.2-4.5c-2-3.8-6.6-7.4-6.7-7.5c0.1,0.1,3.3,4.5,5,7.7
			c1.4,2.6,2.9,5.2-0.2,5.3c-0.1,0-0.2,0-0.3,0c-2.8,0-3.5-0.9-4-1.4c-0.6-0.5-1.5-0.7-1.5-0.7c1.5,1.6,0.5,2.1-1.1,2.1
			c-2.2,0-5.8-0.9-5.8-0.9C22.4,15.4,26.9,15.8,30.5,15.8z"/>
	</g>
	<path fill="#D1C09A" d="M32.4,44.4c0,0,1.1,0.5,2.1,3c0,0,0.5-0.9-0.1-1.9c0,0,0.8,0.8,0.3,2.6c0,0,1-1.2,0.9-2.7
		c0,0,1.4,3.7,1.1,6.7c0,0-0.9,0.1-2.2,1.8c0,0-1.1-0.8-2.7-2.7c0,0,1.2-1.7,1.2-3.4C33.1,46.2,32.9,44.9,32.4,44.4z"/>
	<path fill="#C47D3C" d="M13.6,10c0,0,2.9,11.9,5.8,12.8c0,0-2.8-0.9-3.8-3.7c0,0,0.7,0.9,1,1.1C16.6,20.2,14.2,14.9,13.6,10z"/>
	<path fill="#C47D3C" d="M28.3,1.3c0,0,8.6,6.6,9.1,14.1c0,0-1-1.7-2-2.3c0,0,0.9,0.2,1.3,0.7c0,0,0-0.9-1.9-3.2c0,0,1,0.8,1.5,1.7
		C36.9,13,32.2,5,28.3,1.3z"/>
	<path fill="#AE9574" d="M13.5,54.9c1.8-3,1.5-6.6,5.7-8.5c0.3-0.1,7.4-3.8,8.7-6.2c0.4-0.7-0.1,3.6-0.3,4.2
		c-0.5,1.7-0.5,4.9-0.5,4.9c0.2,4.2,5.4,6.5,5.4,6.5c-0.5-0.7-0.9-2-0.9-2c1,1.2,4.2,3.4,4.2,3.4c0.5-1,4.6-5.6,4.6-5.6
		c0,0.6,0.4,0.7,0.4,0.7c1.1-1.2,2.4-4.4,2.4-4.4c0,1.3,0.3,1.7,0.3,1.7c0.7-2.6,0.5-7.9,0.5-7.9c0.1,0.3,1.1,3.6,0.5,7
		c-0.5,2.7-2.4,6.6-5.2,11.4c-2.8,4.8-4.9,7.2-7.5,9.7c-2.7,2.5-3.9,2.9-3.9,2.9c-0.3-0.3-4.8-3.4-7.7-7.1C16.9,61.7,14,56,14,56
		L13.5,54.9z"/>
	<circle fill="#FFFFFF" cx="28.3" cy="28.7" r="0.2"/>
	<path d="M27.9,28.9c0,0,0.7-0.5,0.8-0.8l-0.3,0l-0.5,0.4V28.9z"/>
	<path fill="#D1C09A" d="M13.6,55.9c0,0,2-4.7,3.3-6.9c1.4-2.1,3.4-2.7,5.8-4c0,0-2.8,2.1-4.6,4.8c0,0,1.6-1.8,4.6-3
		c0,0-2.6,2.2-4.1,4.5c0,0,0.4-0.6,3.3-1.6c0,0-2,1.6-4.1,3.8c0,0,5.4-1.5,7.5-5c0,0-0.6,3.6-3.8,5.4c0,0,1.7-0.4,3.5-1.5
		c0,0-1.6,1.7-5.1,3.2c-3.4,1.4-4.4,2-4.4,2L13.6,55.9z"/>
	<path fill="#AE9574" d="M36.1,33.6c0,0,2,0,3.4,2.7c1.4,2.7,2.2,4.5,2.2,6.6c0,2.2-1.3,4.8-1.7,5.5c0,0,0.8-4.2,0.3-6.3
		c0,0,0.4,1.6,0.4,3.2c0,0,1.3-3.8-2.3-6.8c0,0,1.8,1.1,2.4,2.4c0,0-0.6-2.8-3.6-4.3c0,0,1,0,1.7,0.6C39,37.1,39.2,35.7,36.1,33.6z"
		/>
	<path fill="#AE9574" d="M23.5,30.5c0,0-2.9,3.9-3.1,4.5c-0.1,0.6,0,1.2,0.3,1.5c0,0,0.5-1.8,1.4-3.1C23,32,23.4,31,23.5,30.5z"/>
	<path fill="#AE9574" d="M30.9,25c0,0,0.5-0.2,1.1,0c0.7,0.1,1.3,0.6,1.6,0.8c0.3,0.1,0.6,0.5,0.6,0.5s0.2-0.5-1,1.3
		c-1.3,1.8-1.4,1.6-1.7,2.2c0,0,0.6-2.1,1.2-2.8c0,0-1,0.3-1.6,1.1c0,0,0.5-1.5,1.2-1.6c0,0-2.5-0.5-3.7-0.3
		C28.6,26.1,29.9,25.2,30.9,25z"/>
	<path fill="#AE9574" d="M30.5,35.8c0,0,2.3-0.2,3.4-1c1.1-0.8,1.2-1.3,1-2.5c-0.2-1.2-0.4-1.3-0.6-1.7c0,0,0.9,2.6-0.2,3.6
		c0,0,0.5-1,0-2.4c0,0-0.1,1.8-0.5,2.5c0,0,0.1,0.1-0.3-1.5c0,0,0.1,1.4-0.1,1.7C32.8,34.8,32.3,35.3,30.5,35.8z"/>
	<path fill="#AE9574" d="M37.1,26.6c0,0,2.1,1.3,2.5,1.3c0,0-0.6,0.3-1.9,0.2c0,0,0.5-0.1,1-0.4C39.1,27.6,38.1,27.9,37.1,26.6z"/>
	<path fill="#AE9574" d="M27.2,30.4c0,0,1.5,0,2.5-0.7C29.7,29.7,28.7,30.8,27.2,30.4z"/>
	<path fill="#C47D3C" d="M13.4,24.4c0,0,3.2,0.6,5.8,0.5c2.6,0,3.8,0.3,4.6,0.4c0.8,0.2-2.3-0.6-4.4-0.9c-2.1-0.4-1.5-0.3-2.4-0.8
		c0,0,0.3,0.6,0.8,0.8c0,0-1.9,0.3-3.2-0.6c0,0,0.6,0.7,0.9,0.8C15.5,24.5,14.2,24.6,13.4,24.4z"/>
	<path fill="#C47D3C" d="M21.2,13.7c0,0,3.3,1.3,7.5,1c0,0-1.7,0.3-3,0.3c0,0,0.8,0.1,2.5,0.2C28.2,15.2,24,15.7,21.2,13.7z"/>
	<polyline fill="#7A232E" points="18.6,63.3 22.5,68.4 25.8,71.3 27.6,72.6 29.9,71 33.4,67.9 37.3,63.1 22.4,62.5 18.6,63.3 	"/>
	<path fill="#FFFFFF" d="M46.6,41c1.9-9.4,1.9-17.8,1.8-20.9c-2.8-0.5-5.8-0.8-8.8-0.8l0,0c-8.9,0-17.1,2.4-22.4,4.4
		c-4.2,1.6-7.3,3.2-8.6,3.9c-0.5,7.6,0.2,14.7,2,21.2c1.5,5.3,3.9,10.3,7,14.6c4,5.7,8.2,8.8,9.9,10c5.1-3.3,9.3-8.1,12.6-14.1
		C43,54.1,45.2,47.9,46.6,41z M27.6,72c-1.9-1.4-5.5-4.3-9-9.3c-3-4.2-5.3-9-6.8-14.3c-1.8-6.2-2.5-12.9-2-20.1
		c3.9-2,16-7.8,29.9-7.8l0,0c2.6,0,5.2,0.2,7.7,0.6c0,3.6-0.1,11.1-1.8,19.6c-1.4,6.8-3.5,12.9-6.3,18C36.1,64.3,32.2,68.8,27.6,72z
		"/>
	<g>
		<path fill="#EDAA00" d="M28.2,67.9c0,0,0.2,0,0.3,0c0,0-0.2,0.3-1,0.5c0,0-0.2,0-0.3,0.2c-0.1,0.1-0.4,0.4-0.7,0.6c0,0,0,0,0,0
			c0,0,0,0,0,0c0,0-0.1-0.1-0.1-0.1c0,0,0-0.1,0-0.1c0,0,0.1-0.1,0.1-0.2c0-0.1,0-0.1,0.1-0.2c0,0-0.6,0-1-0.3
			c-0.4-0.4-0.2-0.7-0.2-0.8c0-0.1,0.2-0.5,1.1-0.8c0.9-0.3,1.5-0.1,1.9,0.1c0.4,0.2,0.5,0.7,0.4,0.8c0,0-0.2,0-0.2,0
			c0,0,0.1-0.1,0.1-0.2c0-0.1-0.1-0.5-0.7-0.6c-0.6-0.1-1.5,0.2-1.6,0.2c-0.1,0-0.7,0.3-0.9,0.7c-0.1,0.4,0.3,0.7,0.9,0.7
			c0.2,0,0.1,0,0.2,0c0.1,0,0.1,0.1,0.1,0.2c0,0.2,0,0.2,0,0.2c0,0,0.3-0.3,0.4-0.5C27.1,68.2,27.9,68.1,28.2,67.9"/>
		<path fill="#EDAA00" d="M27.4,66.7C27.4,66.7,27.4,66.7,27.4,66.7c0.1,0-0.1,0.4,0.4,0.7c0,0,0.4,0.2,1.3,0.2c0,0,0.2,0.2,0.5,0.3
			c0,0,0,0,0-0.2c-0.1-0.1-0.1-0.2,0-0.3c0-0.1,0.1-0.1,0.1-0.1c0,0,0.7,0,0.9-0.5c0.3-0.6-1-1.1-2.2-0.8c0,0-0.5,0-0.8,0.3
			c0,0,0,0-0.1,0c0,0,0.4-0.5,1.4-0.5c1,0,1.5,0.3,1.6,0.4c0.1,0.1,0.5,0.4,0.1,0.9c-0.4,0.5-0.9,0.5-0.9,0.5c0,0,0.1,0.2,0.2,0.3
			c0,0,0.1,0.1,0.1,0.2c0,0,0,0.1,0,0.1c0,0,0,0,0,0c0,0,0,0-0.1,0c0,0-0.1,0-0.1,0c0,0-0.2-0.1-0.2-0.1c-0.1,0-0.3-0.1-0.4-0.2
			c-0.1-0.1-0.2-0.2-0.4-0.2c-0.2,0-0.6,0.1-1.1-0.2C27.2,67.4,27.2,67,27.4,66.7"/>
	</g>
	<g>
		<path d="M46.9,39.1c-0.1,0.6-0.2,1.3-0.4,2c-1.4,6.9-3.6,13.1-6.4,18.2c-3.3,6-7.5,10.8-12.6,14.1c-1.7-1.2-5.9-4.3-9.9-10
			c-2.8-4-5-8.5-6.6-13.4c-0.5,0.3-1,0.6-1.5,0.9c5.7,17.5,18,24.5,18,24.5c13.2-8.1,18.8-23.3,21-35.9C48,39.3,47.5,39.2,46.9,39.1
			z"/>
	</g>
	<path fill="none" d="M25.2,57.8C25.2,57.8,25.2,57.8,25.2,57.8h2.6H25.2z"/>
	<path fill="none" d="M26.4,51h-3.1H26.4C26.4,51,26.4,51,26.4,51z"/>
	<polygon fill="none" points="28,51 28,51 30.5,51 	"/>
	<polygon fill="none" points="23.6,57.8 21.7,57.8 23.6,57.8 	"/>
	<path fill="#FFFFFF" d="M18.5,54.6c-0.2,0.1-0.4,0.4-0.4,0.6v1.4c0,0.4,0.3,0.7,0.7,0.7h2.4c0.4,0,0.7-0.3,0.7-0.7v-1.4
		c0-0.3-0.1-0.5-0.4-0.6v-1.6h0.6c0,0.2,0.1,0.3,0.3,0.4v1.5c-0.2,0.1-0.3,0.3-0.3,0.6v1.1c0,0.4,0.3,0.7,0.7,0.7h3.6
		c0.1,0,0.1,0,0.2,0c0.1,0,0.1,0,0.2,0h1.8c0.2,0,0.4-0.1,0.6-0.3c0.1,0.2,0.3,0.3,0.6,0.3h1.9c0.1,0,0.1,0,0.1,0c0,0,0.1,0,0.1,0
		h1.9c0.4,0,0.6-0.3,0.7-0.6c0,0,0,0,0.1,0c0,0,0,0,0.1,0c0.1,0.3,0.3,0.6,0.7,0.6h1.9c0.4,0,0.7-0.3,0.7-0.7v-1.1
		c0-0.2-0.1-0.4-0.3-0.6v-1.5c0.2-0.1,0.3-0.3,0.3-0.6v-1.1c0-0.4-0.3-0.7-0.7-0.7h-1.6c-0.3,0-0.5,0.1-0.6,0.3l-0.5,0.9l-0.5-0.9
		C34,51.1,33.7,51,33.5,51h-1.6c-0.4,0-0.7,0.3-0.7,0.6c0-0.4-0.3-0.6-0.7-0.6H28h-0.1c-0.4,0-0.7,0.3-0.7,0.6
		c0-0.3-0.3-0.6-0.7-0.6h0l-3.2,0v-0.5c0-0.4-0.3-0.7-0.7-0.7h-5.1c-0.4,0-0.7,0.3-0.7,0.7v1.7c0,0.4,0.3,0.7,0.7,0.7h1V54.6z
		 M31.9,55.5h0.3v-2.7h-0.3v-1.1h1.6l1.1,1.9l1.1-1.9h1.6v1.1H37v2.7h0.3v1.1h-1.9v-1.1h0.3v-1.3l-1.1,1.8l-1.1-1.8v1.3h0.3v1.1
		h-1.9V55.5z M26.8,55.5h0.3l1.1-2.7H28v-1.1h2.6v1.1h-0.2l1.1,2.7h0.3v1.1h-1.9v-1.1h0.2l-0.1-0.2h-1.3l-0.1,0.2h0.2v1.1h-1.8V55.5
		z M22.9,55.5h0.3v-2.7h-0.3v-1.1h3.6V53h-1.1v-0.2h-0.8v0.8h0.2v-0.2h1.1v1.5h-1.1v-0.2h-0.2v0.8h0.8v-0.2h1.1v1.3h-3.6V55.5z
		 M17.4,52.2v-1.7h5.1v1.7h-1.4v-0.4h-0.4v3.3h0.4v1.4h-2.4v-1.4h0.4v-3.3h-0.4v0.4H17.4z"/>
	<polygon fill="#FFFFFF" points="29.2,53.5 28.9,54.3 29.5,54.3 	"/>
	<polygon fill="#FFFFFF" points="7.9,59.6 7.7,59.8 7.7,62.1 7.9,62.3 8.6,62.3 8.8,62.1 8.8,59.8 8.6,59.6 	"/>
	<polygon fill="#FFFFFF" points="26.1,61.1 26.8,61.1 26.5,60.4 	"/>
	<polygon fill="#FFFFFF" points="36.5,59.6 36.5,60.4 37.2,60.4 37.4,60.3 37.4,59.8 37.2,59.6 	"/>
	<polygon fill="#FFFFFF" points="45.1,59.6 44.9,59.8 44.9,62.1 45.1,62.3 45.8,62.3 45.9,62.1 45.9,59.8 45.8,59.6 	"/>
	<polygon fill="#7A232E" points="18.8,51.9 19.2,51.9 19.2,55.2 18.8,55.2 18.8,56.5 21.2,56.5 21.2,55.2 20.8,55.2 20.8,51.9 
		21.2,51.9 21.2,52.2 22.5,52.2 22.5,50.5 17.4,50.5 17.4,52.2 18.8,52.2 	"/>
	<polygon fill="#7A232E" points="26.4,55.3 25.3,55.3 25.3,55.5 24.5,55.5 24.5,54.7 24.7,54.7 24.7,54.9 25.8,54.9 25.8,53.4 
		24.7,53.4 24.7,53.6 24.5,53.6 24.5,52.8 25.3,52.8 25.3,53 26.4,53 26.4,51.7 22.9,51.7 22.9,52.8 23.1,52.8 23.1,55.5 22.9,55.5 
		22.9,56.5 26.4,56.5 	"/>
	<path fill="#7A232E" d="M28.7,55.5h-0.2l0.1-0.2h1.3l0.1,0.2h-0.2v1.1h1.9v-1.1h-0.3l-1.1-2.7h0.2v-1.1H28v1.1h0.2l-1.1,2.7h-0.3
		v1.1h1.8V55.5z M29.2,53.5l0.3,0.8h-0.6L29.2,53.5z"/>
	<polygon fill="#7A232E" points="33.8,55.5 33.6,55.5 33.6,54.2 34.6,55.9 35.7,54.2 35.7,55.5 35.4,55.5 35.4,56.5 37.3,56.5 
		37.3,55.5 37,55.5 37,52.8 37.3,52.8 37.3,51.7 35.7,51.7 34.6,53.6 33.5,51.7 31.9,51.7 31.9,52.8 32.2,52.8 32.2,55.5 31.9,55.5 
		31.9,56.5 33.8,56.5 	"/>
	<polygon fill="#7A232E" points="2.4,57.3 1.4,58.3 1.4,60.1 2.4,61 4.2,61 4.4,61.2 4.4,61.8 4.2,62 3.3,62 3.1,61.8 3.1,61.2 
		1.4,61.2 1.4,62.4 2.4,63.4 5.1,63.4 6,62.4 6,60.7 5.1,59.7 3.3,59.7 3.1,59.5 3.1,58.9 3.3,58.7 4.2,58.7 4.4,58.9 4.4,59.5 
		6,59.5 6,58.3 5.1,57.3 	"/>
	<path fill="#7A232E" d="M7.2,58.5l-0.8,0.8v3.3l0.8,0.8h2.1l0.8-0.8v-3.3l-0.8-0.8H7.2z M8.8,62.1l-0.2,0.2H7.9l-0.2-0.2v-2.3
		l0.2-0.2h0.7l0.2,0.2V62.1z"/>
	<polygon fill="#7A232E" points="12.8,59.6 13.1,59.6 13.1,62.1 13,62.3 12.3,62.3 12.1,62.1 12.1,59.6 12.4,59.6 12.4,58.5 
		10.5,58.5 10.5,59.6 10.8,59.6 10.8,62.6 11.6,63.4 13.7,63.4 14.5,62.6 14.5,59.6 14.8,59.6 14.8,58.5 12.8,58.5 	"/>
	<polygon fill="#7A232E" points="15.1,59.9 16.2,59.9 16.2,59.6 16.4,59.6 16.4,62.3 16.2,62.3 16.2,63.4 18.1,63.4 18.1,62.3 
		17.8,62.3 17.8,59.6 18.1,59.6 18.1,59.9 19.2,59.9 19.2,58.5 15.1,58.5 	"/>
	<polygon fill="#7A232E" points="21.7,59.6 22,59.6 22,60.3 21.1,60.3 21.1,59.6 21.4,59.6 21.4,58.5 19.5,58.5 19.5,59.6 
		19.7,59.6 19.7,62.3 19.5,62.3 19.5,63.4 21.4,63.4 21.4,62.3 21.1,62.3 21.1,61.5 22,61.5 22,62.3 21.7,62.3 21.7,63.4 23.6,63.4 
		23.6,62.3 23.3,62.3 23.3,59.6 23.6,59.6 23.6,58.5 21.7,58.5 	"/>
	<path fill="#7A232E" d="M27.5,59.6h0.2v-1.1h-2.6v1.1h0.2l-1.1,2.7H24v1.1h1.8v-1.1h-0.2l0.1-0.2h1.3l0.1,0.2H27v1.1h1.9v-1.1h-0.3
		L27.5,59.6z M26.1,61.1l0.3-0.8l0.3,0.8H26.1z"/>
	<polygon fill="#7A232E" points="31.8,60.4 30.7,58.5 29.2,58.5 29.2,59.6 29.5,59.6 29.5,62.3 29.2,62.3 29.2,63.4 31.1,63.4 
		31.1,62.3 30.8,62.3 30.8,61 31.8,62.8 32.9,61 32.9,62.3 32.6,62.3 32.6,63.4 34.5,63.4 34.5,62.3 34.2,62.3 34.2,59.6 34.5,59.6 
		34.5,58.5 33,58.5 	"/>
	<path fill="#7A232E" d="M34.9,58.5v1.1h0.3v2.7h-0.3v1.1h1.9v-1.1h-0.3v-0.7h1.4l0.8-0.8v-1.5l-0.8-0.8H34.9z M37.4,60.3l-0.2,0.2
		h-0.7v-0.8h0.7l0.2,0.2V60.3z"/>
	<polygon fill="#7A232E" points="39.2,59.9 40.3,59.9 40.3,59.6 40.6,59.6 40.6,62.3 40.3,62.3 40.3,63.4 42.2,63.4 42.2,62.3 
		41.9,62.3 41.9,59.6 42.2,59.6 42.2,59.9 43.3,59.9 43.3,58.5 39.2,58.5 	"/>
	<path fill="#7A232E" d="M44.3,58.5l-0.8,0.8v3.3l0.8,0.8h2.1l0.8-0.8v-3.3l-0.8-0.8H44.3z M45.9,62.1l-0.2,0.2h-0.7l-0.2-0.2v-2.3
		l0.2-0.2h0.7l0.2,0.2V62.1z"/>
	<g>
		<path d="M54.7,58.7v-1.4c0-0.8-0.6-1.4-1.4-1.4h-2.4c-0.2,0-0.5,0.1-0.6,0.2c-0.2-0.1-0.4-0.2-0.6-0.2h-2c-0.7,0-1.3,0.5-1.4,1.2
			h-1.9c-0.2,0-0.4,0-0.5,0.1c-0.2-0.1-0.3-0.1-0.5-0.1h-4.1c-0.2,0-0.4,0.1-0.6,0.2c0,0,0,0,0,0c0.1-0.2,0.2-0.5,0.2-0.7v-1.1
			c0-0.3-0.1-0.6-0.3-0.9v-0.9c0.2-0.2,0.3-0.5,0.3-0.9v-1.1c0-0.8-0.6-1.4-1.4-1.4h-1.6c-0.4,0-0.9,0.2-1.1,0.5
			c-0.3-0.3-0.7-0.5-1.1-0.5h-1.6c-0.3,0-0.5,0.1-0.7,0.2c-0.2-0.1-0.4-0.2-0.7-0.2H28c-0.3,0-0.6,0.1-0.8,0.2
			c-0.2-0.1-0.5-0.2-0.8-0.2H24c-0.1-0.7-0.7-1.2-1.4-1.2h-5.1c-0.8,0-1.4,0.6-1.4,1.4v1.7c0,0.8,0.6,1.4,1.4,1.4h0.3v0.6
			c-0.2,0.3-0.4,0.6-0.4,1v1.4c0,0.2,0,0.4,0.1,0.6h-2.4c-0.1,0-0.1,0-0.2,0c-0.1,0-0.1,0-0.2,0h-1.9c-0.1,0-0.1,0-0.2,0
			c-0.1,0-0.1,0-0.2,0h-1.9c-0.2,0-0.4,0-0.6,0.1c-0.2-0.1-0.4-0.1-0.6-0.1H7.2c-0.1,0-0.2,0-0.3,0l-0.8-0.8c-0.3-0.3-0.6-0.4-1-0.4
			H2.4c-0.4,0-0.7,0.2-1,0.4l-1,1c-0.3,0.3-0.4,0.6-0.4,1v1.8c0,0.2,0,0.4,0.1,0.6C0,60.8,0,61,0,61.2v1.2c0,0.4,0.2,0.7,0.4,1l1,1
			c0.3,0.3,0.6,0.4,1,0.4h2.7c0.4,0,0.7-0.2,1-0.4l0.1-0.1l0.1,0.1c0.3,0.3,0.6,0.4,1,0.4h2.1c0.4,0,0.7-0.2,1-0.4l0.1-0.1l0.1,0.1
			c0.3,0.3,0.6,0.4,1,0.4h2.1c0.4,0,0.7-0.2,1-0.4l0.3-0.3c0.3,0.4,0.7,0.7,1.2,0.7h1.9c0.3,0,0.5-0.1,0.7-0.2
			c0.2,0.1,0.4,0.2,0.7,0.2h1.9c0.1,0,0.1,0,0.2,0c0.1,0,0.1,0,0.2,0h1.9c0.1,0,0.1,0,0.2,0c0.1,0,0.1,0,0.2,0h1.8
			c0.2,0,0.4,0,0.6-0.1c0.2,0.1,0.4,0.1,0.6,0.1h1.9c0,0,0.1,0,0.1,0c0,0,0.1,0,0.1,0h1.9c0.3,0,0.5-0.1,0.8-0.2
			c0.2,0.1,0.5,0.2,0.8,0.2h1.9c0.1,0,0.1,0,0.2,0c0.1,0,0.1,0,0.2,0h1.9c0.8,0,1.4-0.6,1.4-1.4v-0.5c0.2-0.1,0.4-0.2,0.6-0.3v0.8
			c0,0.8,0.6,1.4,1.4,1.4h1.9c0.4,0,0.8-0.2,1.1-0.5l0.1,0.1c0.3,0.3,0.6,0.4,1,0.4h2.1c0.2,0,0.4,0,0.6-0.1
			c0.2,0.1,0.4,0.1,0.6,0.1H50c0.2,0,0.4-0.1,0.6-0.1c0.2,0.1,0.4,0.1,0.6,0.1h2c0.8,0,1.4-0.6,1.4-1.4V62c0-0.4-0.1-0.7-0.4-0.9
			v-1.4C54.6,59.4,54.7,59.1,54.7,58.7z M17.4,52.9c-0.4,0-0.7-0.3-0.7-0.7v-1.7c0-0.4,0.3-0.7,0.7-0.7h5.1c0.4,0,0.7,0.3,0.7,0.7
			V51h3.1c0,0,0,0,0.1,0h0c0.4,0,0.7,0.3,0.7,0.6c0-0.4,0.3-0.6,0.7-0.6H28c0,0,0,0,0,0h2.6c0.4,0,0.7,0.3,0.7,0.6
			c0-0.4,0.3-0.6,0.7-0.6h1.6c0.3,0,0.5,0.1,0.6,0.3l0.5,0.9l0.5-0.9c0.1-0.2,0.4-0.3,0.6-0.3h1.6c0.4,0,0.7,0.3,0.7,0.7v1.1
			c0,0.2-0.1,0.4-0.3,0.6v1.5c0.2,0.1,0.3,0.3,0.3,0.6v1.1c0,0.4-0.3,0.7-0.7,0.7h-1.9c-0.4,0-0.6-0.3-0.7-0.6c0,0,0,0-0.1,0
			c0,0,0,0-0.1,0c-0.1,0.3-0.3,0.6-0.7,0.6h-1.9c-0.1,0-0.1,0-0.1,0c0,0-0.1,0-0.1,0h-1.9c-0.2,0-0.4-0.1-0.6-0.3
			c-0.1,0.2-0.3,0.3-0.6,0.3h-1.8c-0.1,0-0.1,0-0.2,0c-0.1,0-0.1,0-0.2,0h-3.6c-0.4,0-0.7-0.3-0.7-0.7v-1.1c0-0.2,0.1-0.4,0.3-0.6
			v-1.5c-0.1-0.1-0.2-0.3-0.3-0.4h-0.6v1.6c0.2,0.1,0.4,0.4,0.4,0.6v1.4c0,0.4-0.3,0.7-0.7,0.7h-2.4c-0.4,0-0.7-0.3-0.7-0.7v-1.4
			c0-0.3,0.1-0.5,0.4-0.6v-1.6H17.4z M54,58.7c0,0.3-0.1,0.5-0.4,0.6v2.1c0.2,0.1,0.4,0.4,0.4,0.6v1.4c0,0.4-0.3,0.7-0.7,0.7h-2
			c-0.3,0-0.5-0.1-0.6-0.3l0,0c-0.1,0.2-0.4,0.4-0.6,0.4h-2.4c-0.2,0-0.5-0.1-0.6-0.3L47,63.9c-0.1,0.1-0.3,0.2-0.5,0.2h-2.1
			c-0.2,0-0.4-0.1-0.5-0.2l-0.8-0.8c-0.1-0.1-0.1-0.2-0.2-0.3v0.5c0,0.4-0.3,0.7-0.7,0.7h-1.9c-0.4,0-0.7-0.3-0.7-0.7v-1.1
			c0-0.2,0.1-0.4,0.3-0.6v-1.1h-0.5v0.1c0,0.2-0.1,0.4-0.2,0.5L38.4,62c-0.1,0.1-0.3,0.2-0.5,0.2h-0.4c0,0,0,0,0,0v1.1
			c0,0.4-0.3,0.7-0.7,0.7h-1.9c-0.1,0-0.1,0-0.2,0c-0.1,0-0.1,0-0.2,0h-1.9c-0.4,0-0.6-0.3-0.7-0.6c0,0,0,0-0.1,0c0,0,0,0-0.1,0
			c-0.1,0.3-0.3,0.6-0.7,0.6h-1.9c-0.1,0-0.1,0-0.1,0c0,0-0.1,0-0.1,0H27c-0.2,0-0.4-0.1-0.6-0.3c-0.1,0.2-0.3,0.3-0.6,0.3H24
			c-0.1,0-0.1,0-0.2,0c-0.1,0-0.1,0-0.2,0h-1.9c-0.1,0-0.1,0-0.2,0c-0.1,0-0.1,0-0.2,0h-1.9c-0.3,0-0.6-0.2-0.7-0.5
			c-0.1,0.3-0.4,0.5-0.7,0.5h-1.9c-0.4,0-0.7-0.3-0.7-0.7v-1.1c0-0.2,0.1-0.4,0.3-0.6v-1.1h-0.6v2c0,0.2-0.1,0.4-0.2,0.5l-0.8,0.8
			c-0.1,0.1-0.3,0.2-0.5,0.2h-2.1c-0.2,0-0.4-0.1-0.5-0.2l-0.6-0.6l-0.6,0.6c-0.1,0.1-0.3,0.2-0.5,0.2H7.2c-0.2,0-0.4-0.1-0.5-0.2
			l-0.6-0.6l-0.6,0.6c-0.1,0.1-0.3,0.2-0.5,0.2H2.4c-0.2,0-0.4-0.1-0.5-0.2l-1-1c-0.1-0.1-0.2-0.3-0.2-0.5v-1.2
			c0-0.2,0.1-0.4,0.3-0.6l-0.1-0.1c-0.1-0.1-0.2-0.3-0.2-0.5v-1.8c0-0.2,0.1-0.4,0.2-0.5l1-1c0.1-0.1,0.3-0.2,0.5-0.2h2.7
			c0.2,0,0.4,0.1,0.5,0.2l1,1c0.1,0.1,0.1,0.2,0.2,0.3l0,0c0.1-0.1,0.3-0.2,0.5-0.2h2.1c0.2,0,0.4,0.1,0.5,0.2l0.1,0.1
			c0.1-0.2,0.3-0.3,0.6-0.3h1.9c0.1,0,0.1,0,0.2,0c0.1,0,0.1,0,0.2,0h1.9c0.1,0,0.1,0,0.2,0c0,0,0.1,0,0.2,0h4.1c0,0,0.1,0,0.1,0
			c0,0,0.1,0,0.1,0h1.9c0.1,0,0.1,0,0.2,0c0.1,0,0.1,0,0.2,0h1.9c0,0,0,0,0,0h0.1c0.4,0,0.6,0.3,0.7,0.6c0.1-0.3,0.3-0.6,0.7-0.6
			h0.1c0,0,0,0,0,0h2.6c0.4,0,0.7,0.3,0.7,0.6c0-0.4,0.3-0.6,0.7-0.6h1.6c0.3,0,0.5,0.1,0.6,0.3l0.5,0.9l0.5-0.9
			c0.1-0.2,0.4-0.3,0.6-0.3h1.6c0.1,0,0.1,0,0.2,0c0.1,0,0.1,0,0.2,0h3c0.2,0,0.4,0.1,0.5,0.2l0.1,0.1c0.1-0.2,0.4-0.4,0.6-0.4h4.1
			c0.2,0,0.4,0.1,0.5,0.2l0,0c0.1-0.1,0.3-0.2,0.5-0.2h2.1c0.2,0,0.3,0.1,0.5,0.2v-0.7c0-0.4,0.3-0.7,0.7-0.7h2
			c0.3,0,0.5,0.1,0.6,0.3l0,0.1c0.1-0.2,0.4-0.4,0.6-0.4h2.4c0.4,0,0.7,0.3,0.7,0.7V58.7z"/>
		<path fill="#FFFFFF" d="M53.3,56.6h-2.4c-0.3,0-0.5,0.2-0.6,0.4l0-0.1c-0.1-0.2-0.4-0.3-0.6-0.3h-2c-0.4,0-0.7,0.3-0.7,0.7V58
			c-0.1-0.1-0.3-0.2-0.5-0.2h-2.1c-0.2,0-0.4,0.1-0.5,0.2l0,0c-0.1-0.1-0.3-0.2-0.5-0.2h-4.1c-0.3,0-0.5,0.1-0.6,0.4L38.4,58
			c-0.1-0.1-0.3-0.2-0.5-0.2h-3c-0.1,0-0.1,0-0.2,0c-0.1,0-0.1,0-0.2,0H33c-0.3,0-0.5,0.1-0.6,0.3L31.8,59l-0.5-0.9
			c-0.1-0.2-0.4-0.3-0.6-0.3h-1.6c-0.4,0-0.7,0.3-0.7,0.6c0-0.4-0.3-0.6-0.7-0.6l-2.6,0h-0.1c-0.4,0-0.6,0.3-0.7,0.6
			c-0.1-0.3-0.3-0.6-0.7-0.6h-0.1h-1.9c-0.1,0-0.1,0-0.2,0c-0.1,0-0.1,0-0.2,0h-1.9c0,0-0.1,0-0.1,0c0,0-0.1,0-0.1,0h-4.1
			c-0.1,0-0.1,0-0.2,0c0,0-0.1,0-0.2,0h-1.9c-0.1,0-0.1,0-0.2,0c-0.1,0-0.1,0-0.2,0h-1.9c-0.2,0-0.5,0.1-0.6,0.3L9.8,58
			c-0.1-0.1-0.3-0.2-0.5-0.2H7.2c-0.2,0-0.4,0.1-0.5,0.2l0,0c0-0.1-0.1-0.2-0.2-0.3l-1-1c-0.1-0.1-0.3-0.2-0.5-0.2H2.4
			c-0.2,0-0.4,0.1-0.5,0.2l-1,1c-0.1,0.1-0.2,0.3-0.2,0.5v1.8c0,0.2,0.1,0.4,0.2,0.5L1,60.7c-0.2,0.1-0.3,0.3-0.3,0.6v1.2
			c0,0.2,0.1,0.4,0.2,0.5l1,1C2,64,2.2,64.1,2.4,64.1h2.7c0.2,0,0.4-0.1,0.5-0.2l0.6-0.6l0.6,0.6C6.8,64,7,64.1,7.2,64.1h2.1
			c0.2,0,0.4-0.1,0.5-0.2l0.6-0.6l0.6,0.6c0.1,0.1,0.3,0.2,0.5,0.2h2.1c0.2,0,0.4-0.1,0.5-0.2l0.8-0.8c0.1-0.1,0.2-0.3,0.2-0.5v-2
			h0.6v1.1c-0.2,0.1-0.3,0.3-0.3,0.6v1.1c0,0.4,0.3,0.7,0.7,0.7h1.9c0.3,0,0.6-0.2,0.7-0.5c0.1,0.3,0.4,0.5,0.7,0.5h1.9
			c0.1,0,0.1,0,0.2,0c0.1,0,0.1,0,0.2,0h1.9c0.1,0,0.1,0,0.2,0c0.1,0,0.1,0,0.2,0h1.8c0.2,0,0.4-0.1,0.6-0.3
			c0.1,0.2,0.3,0.3,0.6,0.3h1.9c0.1,0,0.1,0,0.1,0c0,0,0.1,0,0.1,0h1.9c0.4,0,0.6-0.3,0.7-0.6c0,0,0,0,0.1,0c0,0,0,0,0.1,0
			c0.1,0.3,0.3,0.6,0.7,0.6h1.9c0.1,0,0.1,0,0.2,0c0.1,0,0.1,0,0.2,0h1.9c0.4,0,0.7-0.3,0.7-0.7v-1.1c0,0,0,0,0,0h0.4
			c0.2,0,0.4-0.1,0.5-0.2l0.8-0.8c0.1-0.1,0.2-0.3,0.2-0.5v-0.1h0.5v1.1c-0.2,0.1-0.3,0.3-0.3,0.6v1.1c0,0.4,0.3,0.7,0.7,0.7h1.9
			c0.4,0,0.7-0.3,0.7-0.7v-0.5c0,0.1,0.1,0.2,0.2,0.3l0.8,0.8c0.1,0.1,0.3,0.2,0.5,0.2h2.1c0.2,0,0.4-0.1,0.5-0.2l0.1-0.1
			c0.1,0.2,0.3,0.3,0.6,0.3H50c0.3,0,0.5-0.2,0.6-0.4l0,0c0.1,0.2,0.4,0.3,0.6,0.3h2c0.4,0,0.7-0.3,0.7-0.7V62
			c0-0.3-0.1-0.5-0.4-0.6v-2.1c0.2-0.1,0.4-0.4,0.4-0.6v-1.4C54,56.9,53.7,56.6,53.3,56.6z M6,59.5H4.4v-0.6l-0.2-0.2H3.3l-0.2,0.2
			v0.6l0.2,0.2h1.8l1,1v1.8l-1,1H2.4l-1-1v-1.2h1.7v0.6L3.3,62h0.9l0.2-0.2v-0.6L4.2,61H2.4l-1-1v-1.8l1-1h2.7l1,1V59.5z M10.1,62.6
			l-0.8,0.8H7.2l-0.8-0.8v-3.3l0.8-0.8h2.1l0.8,0.8V62.6z M14.8,59.6h-0.3v3l-0.8,0.8h-2.1l-0.8-0.8v-3h-0.3v-1.1h1.9v1.1h-0.3v2.5
			l0.2,0.2H13l0.2-0.2v-2.5h-0.3v-1.1h1.9V59.6z M19.2,59.9h-1.1v-0.3l-0.3,0v2.7h0.3v1.1h-1.9v-1.1h0.3v-2.7h-0.3v0.3h-1.1v-1.4
			h4.1V59.9z M23.6,59.6h-0.3v2.7h0.3v1.1h-1.9v-1.1H22v-0.8h-1v0.8h0.3v1.1h-1.9v-1.1h0.3v-2.7h-0.3v-1.1h1.9v1.1h-0.3v0.7h1v-0.7
			h-0.3v-1.1h1.9V59.6z M28.9,63.4H27v-1.1h0.2l-0.1-0.2h-1.3l-0.1,0.2h0.2v1.1H24v-1.1h0.3l1.1-2.7h-0.2v-1.1h2.6v1.1h-0.2l1.1,2.7
			h0.3V63.4z M34.5,59.6h-0.3v2.7h0.3v1.1h-1.9v-1.1h0.3V61l-1.1,1.7L30.8,61v1.3h0.3v1.1h-1.9v-1.1h0.3v-2.7h-0.3v-1.1h1.6l1.1,1.9
			l1.1-1.9h1.6V59.6z M38.7,60.8l-0.8,0.8h-1.4v0.7h0.3v1.1h-1.9v-1.1h0.3v-2.7h-0.3v-1.1h3l0.8,0.8V60.8z M43.3,59.9h-1.1v-0.3
			l-0.3,0v2.7h0.3v1.1h-1.9v-1.1h0.3v-2.7h-0.3v0.3h-1.1v-1.4h4.1V59.9z M47.2,62.6l-0.8,0.8h-2.1l-0.8-0.8v-3.3l0.8-0.8h2.1
			l0.8,0.8V62.6z M53.3,58.7h-0.4V62h0.4v1.4h-2l-1.6-2.7V62H50v1.4h-2.4V62H48v-3.3h-0.4v-1.4h2l1.7,2.8v-1.4h-0.4v-1.4h2.4V58.7z"
			/>
		<polygon fill="#7A232E" points="50.9,58.7 51.3,58.7 51.3,60.1 49.6,57.3 47.6,57.3 47.6,58.7 48,58.7 48,62 47.6,62 47.6,63.4 
			50,63.4 50,62 49.7,62 49.7,60.7 51.3,63.4 53.3,63.4 53.3,62 52.9,62 52.9,58.7 53.3,58.7 53.3,57.3 50.9,57.3 		"/>
	</g>
	<path d="M30.5,17.1c1.5,0,2.8-0.1,3.7-0.1c0.3,0,0.6,0,0.8,0c-0.1,0.5-0.6,1.6-1.6,2.8c-0.7,0.9-1.3,1.9-1.7,2.7
		c0.5-0.1,1.1-0.2,1.6-0.2c0.3-0.6,0.7-1.1,1.1-1.7c1.5-1.9,3-4.9,0.8-4.9c0,0-0.1,0-0.1,0c-0.8,0-2.6,0.2-4.6,0.2
		c-3.6,0-8.1-0.4-10.1-2.5c0,0,3.5,0.9,5.8,0.9c1.6,0,2.6-0.5,1.1-2.1c0,0,1,0.2,1.5,0.7c0.6,0.5,1.3,1.4,4,1.4c0.1,0,0.2,0,0.3,0
		c3-0.1,1.6-2.7,0.2-5.3c-1.7-3.2-4.9-7.5-5-7.7C28.5,1.4,33,5,35,8.8c2,3.7,2,4.5,2.2,4.5c0,0,0,0,0,0c0.2-0.1,0.5-3.8,0-5.9
		c-0.5-2.1-1.7-5.6-1.1-5.9c0,0,0,0,0,0c0.7,0,3.7,6.3,2.6,12.4c-0.6,3.1-1.9,5.8-3,8c0.5,0,1-0.1,1.5-0.1c1-2.1,2.2-4.8,2.7-7.7
		C41.2,8.4,38.7,2.4,37.5,1c-0.1-0.2-0.6-0.7-1.3-0.7c-0.1,0-0.3,0-0.4,0.1c0,0,0,0,0,0c-1.3,0.5-1,2.1-0.8,2.9
		c0.2,0.8,0.4,1.9,0.7,2.8c0.2,0.6,0.3,1.2,0.4,1.6c0,0.1,0.1,0.3,0.1,0.4c-2.2-4-6.8-7.7-7-7.9c-0.5-0.4-1.2-0.4-1.7,0.1
		C27,0.8,26.9,1.5,27.3,2c0,0,0,0,0,0c0.3,0.5,3.3,4.5,4.9,7.5l0.1,0.1c0.5,0.9,1.4,2.6,1.4,3.2c-0.1,0-0.3,0.1-0.5,0.1
		c-0.1,0-0.2,0-0.3,0c-2,0-2.6-0.5-3-0.9c-0.1-0.1-0.1-0.1-0.2-0.1c-0.8-0.7-1.9-1-2.1-1c-0.5-0.1-1.1,0.1-1.4,0.6
		c-0.3,0.5-0.2,1,0.1,1.4c0,0,0,0-0.1,0c-2.1,0-5.4-0.9-5.5-0.9c-0.6-0.1-1.1,0.1-1.4,0.6c-0.3,0.5-0.2,1.1,0.2,1.5
		C21.3,16.1,24.9,17.1,30.5,17.1z"/>
	<path d="M19.5,26.4c0.1-0.1,0.1-0.1,0.2-0.2c0.7-0.4,1.5-0.7,2.2-1c-2.3-0.2-7.8,0-9.6-0.9c-2.1-1-2.1-4.3-2.1-4.3
		c0.5,0.7,1.1,1,1.1,1l0.4-1.2c-2.4-3.2-2.2-8.2-2.2-8.2c0.2,3.3,2.8,7.1,2.8,7.1c0.1-0.9,1.2-1.2,1.2-1.2c-0.3,0.9-0.4,2-0.4,2
		c1.5,2.6,3.4,2.9,3.4,2.9c-2.5-4.5-3-12.6-3-12.6s1.7,6.9,3.4,10.1c1.7,3.2,3.5,3.3,5.2,3.3c1.2,0,2.4,0.2,3.4,0.6
		c0.7-0.2,1.4-0.4,2-0.6c-0.1,0-0.2-0.1-0.3-0.1c-1.2-0.5-3-1.2-5.2-1.2c-1.5,0-2.7,0-4.1-2.6c-1.6-3-3.3-9.8-3.3-9.8
		c-0.2-0.6-0.8-1.1-1.4-1c-0.7,0.1-1.1,0.7-1.1,1.3c0,0.2,0.2,3.1,0.9,6.4c-0.2,0.1-0.4,0.1-0.6,0.2c-0.8-1.4-1.6-3.3-1.7-5
		c0-0.7-0.6-1.2-1.3-1.2h0c-0.7,0-1.2,0.5-1.3,1.2c0,0.2-0.2,4,1.4,7.3C9.3,19.2,9,19.6,9,20.1c0,0.4,0.1,4.2,2.8,5.5
		c1.4,0.7,4.1,0.8,7.5,0.9C19.4,26.4,19.4,26.4,19.5,26.4z"/>
	<path fill="#D1C09A" d="M30.5,15.8c2,0,3.7-0.1,4.6-0.2c0,0,0.1,0,0.1,0c2.2,0,0.7,3-0.8,4.9c-0.4,0.5-0.8,1.1-1.1,1.7
		c0.9-0.1,1.8-0.2,2.7-0.3c1.1-2.2,2.4-4.9,3-8C40,7.9,36.9,1.6,36.3,1.6c0,0,0,0,0,0c-0.6,0.2,0.6,3.8,1.1,5.9
		c0.5,2.1,0.2,5.8,0,5.9c0,0,0,0,0,0c-0.2,0-0.3-0.8-2.2-4.5c-2-3.8-6.6-7.4-6.7-7.5c0.1,0.1,3.3,4.5,5,7.7c1.4,2.6,2.9,5.2-0.2,5.3
		c-0.1,0-0.2,0-0.3,0c-2.8,0-3.5-0.9-4-1.4c-0.6-0.5-1.5-0.7-1.5-0.7c1.5,1.6,0.5,2.1-1.1,2.1c-2.2,0-5.8-0.9-5.8-0.9
		C22.4,15.4,26.9,15.8,30.5,15.8z"/>
	<path fill="#EDAA00" d="M25.6,23.9c-1-0.3-2.2-0.6-3.4-0.6c-1.7,0-3.5-0.1-5.2-3.3C15.3,16.9,13.6,10,13.6,10s0.5,8.1,3,12.6
		c0,0-1.9-0.3-3.4-2.9c0,0,0.1-1.2,0.4-2c0,0-1.1,0.2-1.2,1.2c0,0-2.6-3.8-2.8-7.1c0,0-0.2,5,2.2,8.2l-0.4,1.2c0,0-0.6-0.4-1.1-1
		c0,0,0,3.4,2.1,4.3c1.8,0.8,7.3,0.7,9.6,0.9C23.2,24.8,24.4,24.3,25.6,23.9z M12.4,22.7l0.4-1.5c0.1,0.5,1.4,2,1.4,2
		C13.2,23.3,12.4,22.7,12.4,22.7z"/>
	<g>
		<path fill="#EDAA00" d="M30.5,15.8c2,0,3.7-0.1,4.6-0.2c0,0,0.1,0,0.1,0c2.2,0,0.7,3-0.8,4.9c-0.4,0.5-0.8,1.1-1.1,1.7
			c0.9-0.1,1.8-0.2,2.7-0.3c1.1-2.3,2.4-5.1,2.9-8C40,7.9,36.9,1.6,36.3,1.6c0,0,0,0,0,0c-0.6,0.2,0.6,3.8,1.1,5.9
			c0.5,2.1,0.2,5.8,0,5.9c0,0,0,0,0,0c-0.2,0-0.3-0.8-2.2-4.5c-2-3.8-6.6-7.4-6.7-7.5c0.1,0.1,3.3,4.5,5,7.7
			c1.4,2.6,2.9,5.2-0.2,5.3c-0.1,0-0.2,0-0.3,0c-2.8,0-3.5-0.9-4-1.4c-0.6-0.5-1.5-0.7-1.5-0.7c1.5,1.6,0.5,2.1-1.1,2.1
			c-2.2,0-5.8-0.9-5.8-0.9C22.4,15.4,26.9,15.8,30.5,15.8z"/>
	</g>
	<path fill="#C47D3C" d="M13.6,10c0,0,2.9,11.9,5.8,12.8c0,0-2.8-0.9-3.8-3.7c0,0,0.7,0.9,1,1.1C16.6,20.2,14.2,14.9,13.6,10z"/>
	<path fill="#C47D3C" d="M28.3,1.3c0,0,8.6,6.6,9.1,14.1c0,0-1-1.7-2-2.3c0,0,0.9,0.2,1.3,0.7c0,0,0-0.9-1.9-3.2c0,0,1,0.8,1.5,1.7
		C36.9,13,32.2,5,28.3,1.3z"/>
	<path fill="#C47D3C" d="M19.2,24.9c1.4,0,2.5,0.1,3.2,0.2c0,0,0.1,0,0.1,0c-0.9-0.2-2.1-0.5-3.1-0.6c-2.1-0.4-1.5-0.3-2.4-0.8
		c0,0,0.3,0.6,0.8,0.8c0,0-1.9,0.3-3.2-0.6c0,0,0.6,0.7,0.9,0.8c0,0-1,0-1.8-0.1C14.7,24.6,17.2,25,19.2,24.9z"/>
	<path fill="#C47D3C" d="M21.2,13.7c0,0,3.3,1.3,7.5,1c0,0-1.7,0.3-3,0.3c0,0,0.8,0.1,2.5,0.2C28.2,15.2,24,15.7,21.2,13.7z"/>
	<path fill="#C47D3C" d="M37,19c0,0-2.6,6.2-2.9,6.1c0,0,0.6-0.4,0.1-2.5c0,0,0.4,0.4,0.4,0.7c0,0,0.4-1,0.2-2.1
		c0,0,0.4,0.6,0.4,0.8c0,0,0-1.5-0.1-2.1c0,0,0.5,0.5,0.5,0.8C35.8,20.8,36.8,19.2,37,19z"/>
</g>
</svg>
